<?xml version="1.0" encoding="utf-8"?><svg xmlns="http://www.w3.org/2000/svg" xmlns:xlink="http://www.w3.org/1999/xlink"><symbol viewBox="0 0 36 36" id="icon_plus"><path class="ast10" d="M24.8 19.1h-5.6v5.6c0 .3-.1.6-.3.8-.2.2-.5.3-.8.3s-.6-.1-.8-.3c-.2-.2-.3-.5-.3-.8v-5.6h-5.6c-.3 0-.6-.1-.8-.3-.2-.2-.3-.5-.3-.8s.1-.6.3-.8c.2-.2.5-.3.8-.3H17v-5.6c0-.3.1-.6.3-.8.2-.2.5-.3.8-.3s.6.1.8.3c.2.2.3.5.3.8v5.6h5.6c.3 0 .6.1.8.3.2.2.3.5.3.8s-.1.6-.3.8c-.3.2-.5.3-.8.3zM18 0c-2.5 0-4.8.5-7 1.4-2.2.9-4.1 2.2-5.7 3.9-1.7 1.6-3 3.5-3.9 5.7C.5 13.2 0 15.5 0 18s.5 4.8 1.4 7 2.2 4.1 3.8 5.7c1.6 1.6 3.5 2.9 5.7 3.8 2.2.9 4.5 1.4 7 1.4s4.8-.5 7-1.4c2.2-.9 4.1-2.2 5.7-3.8 1.6-1.6 2.9-3.5 3.8-5.7s1.4-4.5 1.4-7-.5-4.8-1.4-7c-.9-2.2-2.2-4.1-3.8-5.7-1.6-1.6-3.5-2.9-5.7-3.8C22.8.5 20.5 0 18 0z"/></symbol></svg>