<svg xmlns="http://www.w3.org/2000/svg" viewBox="0 0 24 16"><path d="M12 0c7.22 0 12 8 12 8s-3.96 8-12 8C4.58 16 0 8 0 8s4.57-8 12-8z" fill="#FFF"/><path d="M12 14c5.13 0 8.39-4.03 9.63-5.93C20.22 6.15 16.64 2 12 2 7.28 2 3.78 6.07 2.4 8c1.38 1.93 4.86 6 9.6 6m0 2C4.58 16 0 8 0 8s4.57-8 12-8c7.22 0 12 8 12 8s-3.96 8-12 8z" fill="#333333"/><g fill="#333333"><circle cx="12" cy="8" r="3"/><path d="M12 9c.55 0 1-.45 1-1s-.45-1-1-1-1 .45-1 1 .45 1 1 1m0 2c-1.66 0-3-1.34-3-3s1.34-3 3-3 3 1.34 3 3-1.34 3-3 3z"/></g></svg>
