<?xml version="1.0" encoding="utf-8"?>
<svg xmlns="http://www.w3.org/2000/svg"
	xmlns:xlink="http://www.w3.org/1999/xlink"
	width="24px" height="26px" viewBox="0 0 24 26">
<path fillRule="evenodd" d="M 0 26.01C 0 20.49 5.27 17.01 12 17.01 18.56 17.01 24 20.49 24 26.01 24 26.01 0 26.01 0 26.01ZM 12 19C 6.01 19 2 22.23 2 26 2 26 22 26 22 26 22 22.23 17.93 19 12 19ZM 12 16C 7.58 16 4 12.42 4 8 4 3.58 7.58-0 12-0 16.42-0 20 3.58 20 8 20 12.42 16.42 16 12 16ZM 12 2C 8.69 2 6 4.69 6 8 6 11.31 8.69 14 12 14 15.31 14 18 11.31 18 8 18 4.69 15.31 2 12 2Z"/></svg>
