<?xml version="1.0" encoding="utf-8"?>
<svg xmlns="http://www.w3.org/2000/svg"
	xmlns:xlink="http://www.w3.org/1999/xlink"
	width="30px" height="31px" viewBox="0 0 30 31">
<path fillRule="evenodd" d="M 30 9C 30 9 30 28.47 30 28.47 30 30.42 29.39 31 27.41 31 27.41 31 2.59 31 2.59 31 0.61 31-0 30.42-0 28.47-0 28.47-0 23.5-0 23.5-0 23.5-0 17.5-0 17.5-0 17.5-0 12.5-0 12.5-0 10.7 0.39 10.21 2.17 10 2.17 10 28.47 10 28.47 10 28.47 10 28.54 9.99 28.63 9.98 28.63 9.98 26 10 26 10 28 10 28 8.83 28 8 28 7.4 27.51 7 26 7 26 7 22.35 7 22.35 7 22.35 7 23.14 7.78 23.14 7.78 23.14 7.78 22.91 8 22.91 8 22.91 8 26.68 8 26.68 8 26.96 8 27.19 8.23 27.19 8.5 27.19 8.76 26.98 8.97 26.73 8.99 26.71 9 26.7 9 26.68 9 26.68 9 6.78 9 6.78 9 6.78 9 3.32 9 3.32 9 3.04 9 2.81 8.78 2.81 8.5 2.81 8.23 3.04 8 3.32 8 3.32 8 7.14 8 7.14 8 7.13 7.98 7.13 7.96 7.13 7.94 7.13 7.94 7.8 7.29 7.8 7.29 7.83 7.19 7.86 7.1 7.9 7 7.9 7 6 7 6 7 6 7 1 7 1 7 0.58 7-0 6.41-0 6-0 5.59 0.58 5 1 5 1 5 10 5 10 5 10 5 15.22-0 15.22-0 15.22-0 20.3 4.98 20.3 4.98 20.3 4.98 27 5 27 5 28.45 5 30 6.66 30 8.09 30 8.09 30 8.34 30 8.34 30 8.53 29.98 8.71 29.95 8.89 29.95 8.89 29.95 8.89 29.95 8.89 29.98 8.89 30 8.92 30 9ZM 28 28C 28 28 28 12 28 12 28 12 3 12 3 12 1.86 12 2 11.88 2 13 2 13 2 17 2 17 2 17 9 17 9 17 10.69 17 12 18.82 12 20.48 12 22.13 10.69 24 9 24 9 24 2 24 2 24 2 24 2 28 2 28 2 29.12 1.86 29 3 29 3 29 27 29 27 29 28.14 29 28 29.12 28 28ZM 2 19C 2 19 2 22 2 22 2 22 8.62 22 8.62 22 9.46 22 10.15 21.33 10.15 20.5 10.15 19.67 9.46 19 8.62 19 8.62 19 2 19 2 19ZM 15.22 1.41C 15.22 1.41 8.51 8 8.51 8 8.51 8 21.47 8 21.47 8 21.47 8 21.7 7.78 21.7 7.78 21.7 7.78 15.22 1.41 15.22 1.41ZM 7.6 21.5C 7.04 21.5 6.58 21.05 6.58 20.5 6.58 19.95 7.04 19.5 7.6 19.5 8.16 19.5 8.62 19.95 8.62 20.5 8.62 21.05 8.16 21.5 7.6 21.5Z"/></svg>