<?xml version="1.0" encoding="utf-8"?><svg xmlns="http://www.w3.org/2000/svg" xmlns:xlink="http://www.w3.org/1999/xlink"><symbol viewBox="0 0 30 31" id="icon-business" xmlns="http://www.w3.org/2000/svg"><path d="M30 9v19.47c0 1.95-.61 2.53-2.59 2.53H2.59C.61 31 0 30.42 0 28.47V23.5v-6-5c0-1.8.39-2.29 2.17-2.5h26.3s.07-.01.16-.02L26 10c2 0 2-1.17 2-2 0-.6-.49-1-2-1h-3.65l.79.78-.23.22h3.77c.28 0 .51.23.51.5a.5.5 0 0 1-.46.49c-.02.01-.03.01-.05.01H6.78 3.32c-.28 0-.51-.22-.51-.5 0-.27.23-.5.51-.5h3.82c-.01-.02-.01-.04-.01-.06l.67-.65c.03-.1.06-.19.1-.29H6 1c-.42 0-1-.59-1-1 0-.41.58-1 1-1h9l5.22-5 5.08 4.98L27 5c1.45 0 3 1.66 3 3.09v.25c0 .19-.02.37-.05.55.03 0 .05.03.05.11zm-2 19V12H3c-1.14 0-1-.12-1 1v4h7c1.69 0 3 1.82 3 3.48C12 22.13 10.69 24 9 24H2v4c0 1.12-.14 1 1 1h24c1.14 0 1 .12 1-1zM2 19v3h6.62c.84 0 1.53-.67 1.53-1.5S9.46 19 8.62 19H2zM15.22 1.41L8.51 8h12.96l.23-.22-6.48-6.37zM7.6 21.5c-.56 0-1.02-.45-1.02-1s.46-1 1.02-1 1.02.45 1.02 1-.46 1-1.02 1z"/></symbol><symbol viewBox="0 0 24 26" id="icon-personal" xmlns="http://www.w3.org/2000/svg"><path d="M0 26.01c0-5.52 5.27-9 12-9 6.56 0 12 3.48 12 9H0zM12 19c-5.99 0-10 3.23-10 7h20c0-3.77-4.07-7-10-7zm0-3c-4.42 0-8-3.58-8-8s3.58-8 8-8 8 3.58 8 8-3.58 8-8 8zm0-14C8.69 2 6 4.69 6 8s2.69 6 6 6 6-2.69 6-6-2.69-6-6-6z"/></symbol></svg>