<?xml version="1.0" encoding="utf-8"?>
<svg xmlns="http://www.w3.org/2000/svg"
	xmlns:xlink="http://www.w3.org/1999/xlink"
	width="256px" height="152px" viewBox="0 0 256 152">
<path fillRule="evenodd" d="M 252 148C 252 148 252 4 252 4 252 4 4 4 4 4 4 4 4 148 4 148 4 148 252 148 252 148M 256 152C 256 152-0 152-0 152-0 152-0 0-0 0-0 0 256 0 256 0 256 0 256 152 256 152 256 152 256 152 256 152Z" fill="rgb(219,241,249)"/><path fillRule="evenodd" d="M 217 130C 217 130 217 135 217 135 217 135 197 135 197 135 197 135 197 130 197 130 197 130 217 130 217 130M 187 130C 187 130 187 135 187 135 187 135 167 135 167 135 167 135 167 130 167 130 167 130 187 130 187 130M 157 130C 157 130 157 135 157 135 157 135 137 135 137 135 137 135 137 130 137 130 137 130 157 130 157 130M 127 130C 127 130 127 135 127 135 127 135 107 135 107 135 107 135 107 130 107 130 107 130 127 130 127 130M 97 130C 97 130 97 135 97 135 97 135 78 135 78 135 78 135 78 130 78 130 78 130 97 130 97 130" fill="rgb(219,241,249)"/><path fillRule="evenodd" d="M 217 15C 217 15 217 20 217 20 217 20 197 20 197 20 197 20 197 15 197 15 197 15 217 15 217 15M 187 15C 187 15 187 20 187 20 187 20 167 20 167 20 167 20 167 15 167 15 167 15 187 15 187 15M 157 15C 157 15 157 20 157 20 157 20 137 20 137 20 137 20 137 15 137 15 137 15 157 15 157 15M 127 15C 127 15 127 20 127 20 127 20 107 20 107 20 107 20 107 15 107 15 107 15 127 15 127 15M 97 15C 97 15 97 20 97 20 97 20 78 20 78 20 78 20 78 15 78 15 78 15 97 15 97 15" fill="rgb(219,241,249)"/><path fillRule="evenodd" d="M 60 36C 60 36 65 36 65 36 65 36 65 56 65 56 65 56 60 56 60 56 60 56 60 36 60 36M 60 66C 60 66 65 66 65 66 65 66 65 86 65 86 65 86 60 86 60 86 60 86 60 66 60 66M 60 96C 60 96 65 96 65 96 65 96 65 115 65 115 65 115 60 115 60 115 60 115 60 96 60 96" fill="rgb(219,241,249)"/><path fillRule="evenodd" d="M 236 36C 236 36 241 36 241 36 241 36 241 56 241 56 241 56 236 56 236 56 236 56 236 36 236 36M 236 66C 236 66 241 66 241 66 241 66 241 86 241 86 241 86 236 86 236 86 236 86 236 66 236 66M 236 96C 236 96 241 96 241 96 241 96 241 115 241 115 241 115 236 115 236 115 236 115 236 96 236 96" fill="rgb(219,241,249)"/><rect x="60" y="124" width="11" height="11" fill="rgb(219,241,249)"/><rect x="60" y="15" width="11" height="11" fill="rgb(219,241,249)"/><rect x="230" y="15" width="11" height="11" fill="rgb(219,241,249)"/><rect x="230" y="124" width="11" height="11" fill="rgb(219,241,249)"/><rect x="80" y="34" width="107" height="5" fill="rgb(219,241,249)"/><rect x="80" y="44" width="85" height="5" fill="rgb(219,241,249)"/><rect x="80" y="64" width="85" height="5" fill="rgb(219,241,249)"/><rect x="80" y="74" width="85" height="5" fill="rgb(219,241,249)"/><rect x="80" y="84" width="75" height="5" fill="rgb(219,241,249)"/><rect x="80" y="54" width="97" height="5" fill="rgb(219,241,249)"/><rect x="15" y="15" width="35" height="34" fill="rgb(249,158,110)"/><rect x="15" y="60" width="35" height="34" fill="rgb(249,158,110)"/><rect x="15" y="103" width="35" height="34" fill="rgb(249,158,110)"/><path fillRule="evenodd" d="M 26.13 40.4C 26.13 40.4 32.8 40.4 32.8 40.4 34.81 40.4 36.4 39.96 37.57 39.06 38.74 38.17 39.32 36.94 39.32 35.39 39.32 34.34 39.09 33.49 38.61 32.83 38.13 32.18 37.36 31.71 36.3 31.43 36.3 31.43 36.3 31.31 36.3 31.31 37.11 31.11 37.75 30.68 38.25 30 38.74 29.32 38.98 28.5 38.98 27.54 38.98 26.08 38.42 25 37.29 24.31 36.16 23.62 34.43 23.27 32.11 23.27 32.11 23.27 26.13 23.27 26.13 23.27 26.13 23.27 26.13 40.4 26.13 40.4ZM 30.76 26.78C 30.76 26.78 32.06 26.78 32.06 26.78 33.51 26.78 34.24 27.26 34.24 28.22 34.24 28.76 34.06 29.16 33.69 29.44 33.33 29.71 32.82 29.85 32.15 29.85 32.15 29.85 30.76 29.85 30.76 29.85 30.76 29.85 30.76 26.78 30.76 26.78ZM 32.29 33.23C 33.03 33.23 33.59 33.38 33.97 33.69 34.36 33.99 34.55 34.43 34.55 35 34.55 36.22 33.83 36.83 32.39 36.83 32.39 36.83 30.76 36.83 30.76 36.83 30.76 36.83 30.76 33.23 30.76 33.23 30.76 33.23 32.29 33.23 32.29 33.23Z" fill="rgb(255,255,255)"/><path fillRule="evenodd" d="M 36.47 81.57C 36.47 81.57 33.84 81.57 33.84 81.57 33.84 81.57 35.67 71.24 35.67 71.24 35.67 71.24 38.29 71.24 38.29 71.24 38.29 71.24 38.79 68.41 38.79 68.41 38.79 68.41 29.42 68.41 29.42 68.41 29.42 68.41 28.92 71.24 28.92 71.24 28.92 71.24 31.54 71.24 31.54 71.24 31.54 71.24 29.72 81.57 29.72 81.57 29.72 81.57 27.1 81.57 27.1 81.57 27.1 81.57 26.6 84.4 26.6 84.4 26.6 84.4 35.97 84.4 35.97 84.4 35.97 84.4 36.47 81.57 36.47 81.57Z" fill="rgb(255,255,255)"/><path fillRule="evenodd" d="M 24.28 129.58C 24.28 129.58 24.28 128.59 24.28 128.59 24.28 128.59 39.39 128.59 39.39 128.59 39.39 128.59 39.39 129.58 39.39 129.58 39.39 129.58 24.28 129.58 24.28 129.58ZM 34.94 124.96C 34.05 125.39 32.99 125.6 31.78 125.6 29.94 125.6 28.52 125.13 27.5 124.19 26.48 123.25 25.98 121.96 25.98 120.33 25.98 120.33 25.98 111.13 25.98 111.13 25.98 111.13 28.99 111.13 28.99 111.13 28.99 111.13 28.99 119.87 28.99 119.87 28.99 120.97 29.22 121.77 29.66 122.29 30.1 122.8 30.83 123.06 31.86 123.06 32.84 123.06 33.56 122.8 34.01 122.28 34.45 121.77 34.68 120.95 34.68 119.85 34.68 119.85 34.68 111.13 34.68 111.13 34.68 111.13 37.7 111.13 37.7 111.13 37.7 111.13 37.7 120.36 37.7 120.36 37.7 121.42 37.46 122.34 36.99 123.14 36.52 123.93 35.83 124.54 34.94 124.96Z" fill="rgb(255,255,255)"/></svg>