<?xml version="1.0" encoding="utf-8"?>
<svg xmlns="http://www.w3.org/2000/svg"
	xmlns:xlink="http://www.w3.org/1999/xlink"
	width="302px" height="101px" viewBox="0 0 302 101">
<path fillRule="evenodd" d="M 302.01 25.18C 302.01 25.18 292.18 35.01 292.18 35.01 292.18 35.01 288.99 31.82 288.99 31.82 288.99 31.82 295.8 25 295.8 25 295.8 25 288.99 18.18 288.99 18.18 288.99 18.18 292.18 14.99 292.18 14.99 292.18 14.99 302.01 24.82 302.01 24.82 302.01 24.82 301.83 25 301.83 25 301.83 25 302.01 25.18 302.01 25.18Z" fill="rgb(249,158,110)"/><circle cx="63.50" cy="25.50" r="25.50" fill="rgb(219,241,249)"/><circle cx="121.50" cy="25.50" r="25.50" fill="rgb(219,241,249)"/><circle cx="179.50" cy="25.50" r="25.50" fill="rgb(219,241,249)"/><circle cx="239.50" cy="25.50" r="25.50" fill="rgb(219,241,249)"/><circle cx="151.00" cy="95.00" r="6.00" fill="rgb(219,241,249)"/><circle cx="131.00" cy="95.00" r="6.00" fill="rgb(249,158,110)"/><circle cx="171.00" cy="95.00" r="6.00" fill="rgb(219,241,249)"/><path fillRule="evenodd" d="M 13.01 31.82C 13.01 31.82 9.82 35.01 9.82 35.01 9.82 35.01-0.01 25.18-0.01 25.18-0.01 25.18 0.17 25 0.17 25 0.17 25-0.01 24.82-0.01 24.82-0.01 24.82 9.82 14.99 9.82 14.99 9.82 14.99 13.01 18.18 13.01 18.18 13.01 18.18 6.2 25 6.2 25 6.2 25 13.01 31.82 13.01 31.82Z" fill="rgb(249,158,110)"/></svg>