<?xml version="1.0" encoding="utf-8"?>
<svg xmlns="http://www.w3.org/2000/svg"
	xmlns:xlink="http://www.w3.org/1999/xlink"
	width="248px" height="152px" viewBox="0 0 248 152">
<path fillRule="evenodd" d="M 224 147C 224 147 224 152 224 152 224 152 204 152 204 152 204 152 204 147 204 147 204 147 224 147 224 147M 194 147C 194 147 194 152 194 152 194 152 174 152 174 152 174 152 174 147 174 147 174 147 194 147 194 147M 164 147C 164 147 164 152 164 152 164 152 144 152 144 152 144 152 144 147 144 147 144 147 164 147 164 147M 134 147C 134 147 134 152 134 152 134 152 114 152 114 152 114 152 114 147 114 147 114 147 134 147 134 147M 104 147C 104 147 104 152 104 152 104 152 84 152 84 152 84 152 84 147 84 147 84 147 104 147 104 147M 74 147C 74 147 74 152 74 152 74 152 54 152 54 152 54 152 54 147 54 147 54 147 74 147 74 147M 44 147C 44 147 44 152 44 152 44 152 24 152 24 152 24 152 24 147 24 147 24 147 44 147 44 147" fill="rgb(219,241,249)"/><path fillRule="evenodd" d="M 224-0C 224-0 224 5 224 5 224 5 204 5 204 5 204 5 204-0 204-0 204-0 224-0 224-0M 194-0C 194-0 194 5 194 5 194 5 174 5 174 5 174 5 174-0 174-0 174-0 194-0 194-0M 164-0C 164-0 164 5 164 5 164 5 144 5 144 5 144 5 144-0 144-0 144-0 164-0 164-0M 134-0C 134-0 134 5 134 5 134 5 114 5 114 5 114 5 114-0 114-0 114-0 134-0 134-0M 104-0C 104-0 104 5 104 5 104 5 84 5 84 5 84 5 84-0 84-0 84-0 104-0 104-0M 74-0C 74-0 74 5 74 5 74 5 54 5 54 5 54 5 54-0 54-0 54-0 74-0 74-0M 44-0C 44-0 44 5 44 5 44 5 24 5 24 5 24 5 24-0 24-0 24-0 44-0 44-0" fill="rgb(219,241,249)"/><path fillRule="evenodd" d="M 160.42 93.34C 160.6 97.59 162.16 100.92 165.09 103.34 168.02 105.76 172.01 106.96 177.07 106.96 181.67 106.96 185.91 106.53 189.78 105.66 193.65 104.78 197.85 103.3 202.37 101.19 202.37 101.19 202.37 120.05 202.37 120.05 198.25 122.15 194 123.61 189.62 124.41 185.23 125.22 180 125.62 173.91 125.62 161.25 125.62 151.42 122.26 144.42 115.52 137.41 108.79 133.91 99.2 133.91 86.76 133.91 73.92 137.16 64.07 143.64 57.2 150.13 50.33 159.39 46.9 171.43 46.9 182.88 46.9 191.73 49.88 197.97 55.86 204.21 61.83 207.33 70.43 207.33 81.66 207.33 81.66 207.33 93.34 207.33 93.34 207.33 93.34 160.42 93.34 160.42 93.34ZM 180.39 68.04C 178.4 65.85 175.72 64.75 172.37 64.75 169.28 64.75 166.7 65.72 164.62 67.67 162.54 69.62 161.32 72.67 160.96 76.83 160.96 76.83 183.51 76.83 183.51 76.83 183.42 73.16 182.38 70.23 180.39 68.04ZM 90.89 84.28C 90.89 84.28 60.09 84.28 60.09 84.28 60.09 84.28 60.09 124.28 60.09 124.28 60.09 124.28 33.44 124.28 33.44 124.28 33.44 124.28 33.44 26.16 33.44 26.16 33.44 26.16 60.09 26.16 60.09 26.16 60.09 26.16 60.09 62.54 60.09 62.54 60.09 62.54 90.89 62.54 90.89 62.54 90.89 62.54 90.89 26.16 90.89 26.16 90.89 26.16 117.54 26.16 117.54 26.16 117.54 26.16 117.54 124.28 117.54 124.28 117.54 124.28 90.89 124.28 90.89 124.28 90.89 124.28 90.89 84.28 90.89 84.28Z" fill="rgb(219,241,249)"/><path fillRule="evenodd" d="M-0 21C-0 21 5 21 5 21 5 21 5 41 5 41 5 41-0 41-0 41-0 41-0 21-0 21M-0 51C-0 51 5 51 5 51 5 51 5 71 5 71 5 71-0 71-0 71-0 71-0 51-0 51M-0 81C-0 81 5 81 5 81 5 81 5 101 5 101 5 101-0 101-0 101-0 101-0 81-0 81M-0 111C-0 111 5 111 5 111 5 111 5 131 5 131 5 131-0 131-0 131-0 131-0 111-0 111" fill="rgb(219,241,249)"/><path fillRule="evenodd" d="M 243 21C 243 21 248 21 248 21 248 21 248 41 248 41 248 41 243 41 243 41 243 41 243 21 243 21M 243 51C 243 51 248 51 248 51 248 51 248 71 248 71 248 71 243 71 243 71 243 71 243 51 243 51M 243 81C 243 81 248 81 248 81 248 81 248 101 248 101 248 101 243 101 243 101 243 101 243 81 243 81M 243 111C 243 111 248 111 248 111 248 111 248 131 248 131 248 131 243 131 243 131 243 131 243 111 243 111" fill="rgb(219,241,249)"/><rect x="0" y="141" width="11" height="11" fill="rgb(219,241,249)"/><rect x="0" y="0" width="11" height="11" fill="rgb(219,241,249)"/><rect x="237" y="0" width="11" height="11" fill="rgb(219,241,249)"/><rect x="237" y="141" width="11" height="11" fill="rgb(219,241,249)"/><rect x="25" y="130" width="181" height="5" fill="rgb(219,241,249)"/><path fillRule="evenodd" d="M 218 138C 218 138 218 17 218 17 218 17 223 17 223 17 223 17 223 138 223 138 223 138 218 138 218 138Z" fill="rgb(249,158,110)"/></svg>