<svg data-name="Layer 1" xmlns="http://www.w3.org/2000/svg" viewBox="0 0 256 152"><path d="M252 148V4H4v144h248m4 4H0V0h256z" fill="#dcf0f8"/><path d="M179.015 62.987a52.575 52.575 0 0 0-5.461-13.197l3.524-5.476-17.002-17.003-5.41 3.483a52.59 52.59 0 0 0-13.293-5.562l-1.35-6.227h-24.046l-1.326 6.117a52.574 52.574 0 0 0-13.493 5.559l-5.234-3.37-17.003 17.003 3.328 5.169a52.59 52.59 0 0 0-5.663 13.59l-5.97 1.294v24.046l5.97 1.294a52.59 52.59 0 0 0 5.663 13.59l-3.327 5.168 17.002 17.003 5.234-3.369a52.573 52.573 0 0 0 13.493 5.558l1.326 6.118h24.046l1.35-6.227a52.588 52.588 0 0 0 13.293-5.562l5.41 3.482 17.002-17.003-3.524-5.475a52.577 52.577 0 0 0 5.461-13.197l6.37-1.38V64.367zm-51.182 44.706a31.303 31.303 0 1 1 31.303-31.303 31.303 31.303 0 0 1-31.303 31.303z" fill="#dcf0f8"/><path d="M108.777 88.7a5.395 5.395 0 0 1-3.367-1.099 6.968 6.968 0 0 1-2.228-3.231 14.354 14.354 0 0 1-.788-4.982 11.693 11.693 0 0 1 1.767-6.878 5.639 5.639 0 0 1 4.855-2.484 5.566 5.566 0 0 1 2.65.605 5.856 5.856 0 0 1 2.077 2.038h.128a29.896 29.896 0 0 1-.302-4.234V63.61h6.272v24.77h-4.696l-1.337-2.275h-.24a5.276 5.276 0 0 1-4.791 2.594zm2.547-4.919a2.326 2.326 0 0 0 2.11-.94 5.662 5.662 0 0 0 .66-2.897v-.493a6.31 6.31 0 0 0-.684-3.4 2.412 2.412 0 0 0-2.15-1.01 2.105 2.105 0 0 0-1.902 1.154 6.564 6.564 0 0 0-.677 3.288 6.1 6.1 0 0 0 .685 3.2 2.178 2.178 0 0 0 1.958 1.098zM124.012 65.856a2.63 2.63 0 0 1 .78-2.086 4.941 4.941 0 0 1 5.046.016 2.61 2.61 0 0 1 .797 2.07q0 2.738-3.328 2.738-3.295 0-3.295-2.738zm6.384 22.526h-6.225V70.345h6.224zM139.469 88.382l-6.877-18.037h6.495l3.056 10.666c.01.054.032.143.064.271s.064.279.096.453.06.362.087.558a4.139 4.139 0 0 1 .04.549h.11a6.375 6.375 0 0 1 .288-1.799l3.2-10.698h6.479l-6.877 18.037zM94.34 87.908L74.585 78.28v-3.143l19.757-10.902v5.275l-13.61 6.968 13.61 6.176zM162.492 82.654l13.61-6.176-13.61-6.968v-5.275l19.757 10.902v3.143l-19.757 9.628z" fill="#f49f71"/></svg>