<?xml version="1.0" encoding="utf-8"?><svg xmlns="http://www.w3.org/2000/svg" xmlns:xlink="http://www.w3.org/1999/xlink"><symbol viewBox="0 0 302 101" id="icon_component-brand-carousel"><path d="M302.01 25.18l-9.83 9.83-3.19-3.19L295.8 25l-6.81-6.82 3.19-3.19 9.83 9.83-.18.18.18.18z" fill="#F99E6E"/><circle cx="63.5" cy="25.5" r="25.5" fill="#DBF1F9"/><circle cx="121.5" cy="25.5" r="25.5" fill="#DBF1F9"/><circle cx="179.5" cy="25.5" r="25.5" fill="#DBF1F9"/><circle cx="239.5" cy="25.5" r="25.5" fill="#DBF1F9"/><circle cx="151" cy="95" r="6" fill="#DBF1F9"/><circle cx="131" cy="95" r="6" fill="#F99E6E"/><circle cx="171" cy="95" r="6" fill="#DBF1F9"/><path d="M13.01 31.82l-3.19 3.19-9.83-9.83.18-.18-.18-.18 9.83-9.83 3.19 3.19L6.2 25l6.81 6.82z" fill="#F99E6E"/></symbol><symbol viewBox="0 0 248 152" id="icon_component-headline"><path d="M224 147v5h-20v-5h20m-30 0v5h-20v-5h20m-30 0v5h-20v-5h20m-30 0v5h-20v-5h20m-30 0v5H84v-5h20m-30 0v5H54v-5h20m-30 0v5H24v-5h20M224 0v5h-20V0h20m-30 0v5h-20V0h20m-30 0v5h-20V0h20m-30 0v5h-20V0h20m-30 0v5H84V0h20M74 0v5H54V0h20M44 0v5H24V0h20M160.42 93.34c.18 4.25 1.74 7.58 4.67 10 2.93 2.42 6.92 3.62 11.98 3.62 4.6 0 8.84-.43 12.71-1.3 3.87-.88 8.07-2.36 12.59-4.47v18.86c-4.12 2.1-8.37 3.56-12.75 4.36-4.39.81-9.62 1.21-15.71 1.21-12.66 0-22.49-3.36-29.49-10.1-7.01-6.73-10.51-16.32-10.51-28.76 0-12.84 3.25-22.69 9.73-29.56 6.49-6.87 15.75-10.3 27.79-10.3 11.45 0 20.3 2.98 26.54 8.96 6.24 5.97 9.36 14.57 9.36 25.8v11.68h-46.91zm19.97-25.3c-1.99-2.19-4.67-3.29-8.02-3.29-3.09 0-5.67.97-7.75 2.92s-3.3 5-3.66 9.16h22.55c-.09-3.67-1.13-6.6-3.12-8.79zm-89.5 16.24h-30.8v40H33.44V26.16h26.65v36.38h30.8V26.16h26.65v98.12H90.89v-40zM0 21h5v20H0V21m0 30h5v20H0V51m0 30h5v20H0V81m0 30h5v20H0v-20M243 21h5v20h-5V21m0 30h5v20h-5V51m0 30h5v20h-5V81m0 30h5v20h-5v-20M0 141h11v11H0zM0 0h11v11H0zM237 0h11v11h-11zM237 141h11v11h-11zM25 130h181v5H25z" fill="#DBF1F9"/><path d="M218 138V17h5v121h-5z" fill="#F99E6E"/></symbol><symbol viewBox="0 0 302 152" id="icon_component-hero-carousel"><path d="M275 148V4H27v144h248m4 4H23V0h256v152z" fill="#DBF1F9"/><path fill="#DBF1F9" d="M36 14h229v124H36z"/><path fill="#FFF" d="M86 34h131v15H86zM101 54h101v15H101z"/><circle cx="151" cy="122" r="6" fill="#FFF"/><circle cx="131" cy="122" r="6" fill="#F99E6E"/><circle cx="171" cy="122" r="6" fill="#FFF"/><path d="M13.01 82.82l-3.19 3.19-9.83-9.83.18-.18-.18-.18 9.83-9.83 3.19 3.19L6.2 76l6.81 6.82zM302.01 76.18l-9.83 9.83-3.19-3.19L295.8 76l-6.81-6.82 3.19-3.19 9.83 9.83-.18.18.18.18z" fill="#F99E6E"/></symbol><symbol viewBox="0 0 257 152" id="icon_component-image-teaser"><path d="M121 148V4H4v144h117m4 4H0V0h125v152z" fill="#DBF1F9"/><path fill="#F99E6E" d="M15 120h95v17H15z"/><path fill="#DBF1F9" d="M15 15h95v70H15zM15 95h95v5H15zM15 105h73v5H15zM253 148V4H136v144h117m4 4H132V0h125v152z"/><path fill="#F99E6E" d="M147 120h95v17h-95z"/><path fill="#DBF1F9" d="M147 15h95v70h-95zM147 95h95v5h-95zM147 105h73v5h-73z"/></symbol><symbol viewBox="0 0 256 152" id="icon_component-paragraph"><path d="M252 148V4H4v144h248m4 4H0V0h256v152z" fill="#DBF1F9"/><path d="M217 130v5h-20v-5h20m-30 0v5h-20v-5h20m-30 0v5h-20v-5h20m-30 0v5h-20v-5h20m-30 0v5H78v-5h19M217 15v5h-20v-5h20m-30 0v5h-20v-5h20m-30 0v5h-20v-5h20m-30 0v5h-20v-5h20m-30 0v5H78v-5h19M60 36h5v20h-5V36m0 30h5v20h-5V66m0 30h5v19h-5V96M236 36h5v20h-5V36m0 30h5v20h-5V66m0 30h5v19h-5V96M60 124h11v11H60zM60 15h11v11H60zM230 15h11v11h-11zM230 124h11v11h-11zM80 34h107v5H80zM80 44h85v5H80zM80 64h85v5H80zM80 74h85v5H80zM80 84h75v5H80zM80 54h97v5H80z" fill="#DBF1F9"/><path fill="#F99E6E" d="M15 15h35v34H15zM15 60h35v34H15zM15 103h35v34H15z"/><path d="M26.13 40.4h6.67c2.01 0 3.6-.44 4.77-1.34 1.17-.89 1.75-2.12 1.75-3.67 0-1.05-.23-1.9-.71-2.56-.48-.65-1.25-1.12-2.31-1.4v-.12c.81-.2 1.45-.63 1.95-1.31.49-.68.73-1.5.73-2.46 0-1.46-.56-2.54-1.69-3.23s-2.86-1.04-5.18-1.04h-5.98V40.4zm4.63-13.62h1.3c1.45 0 2.18.48 2.18 1.44 0 .54-.18.94-.55 1.22-.36.27-.87.41-1.54.41h-1.39v-3.07zm1.53 6.45c.74 0 1.3.15 1.68.46.39.3.58.74.58 1.31 0 1.22-.72 1.83-2.16 1.83h-1.63v-3.6h1.53zM36.47 81.57h-2.63l1.83-10.33h2.62l.5-2.83h-9.37l-.5 2.83h2.62l-1.82 10.33H27.1l-.5 2.83h9.37l.5-2.83zM24.28 129.58v-.99h15.11v.99H24.28zm10.66-4.62c-.89.43-1.95.64-3.16.64-1.84 0-3.26-.47-4.28-1.41-1.02-.94-1.52-2.23-1.52-3.86v-9.2h3.01v8.74c0 1.1.23 1.9.67 2.42.44.51 1.17.77 2.2.77.98 0 1.7-.26 2.15-.78.44-.51.67-1.33.67-2.43v-8.72h3.02v9.23c0 1.06-.24 1.98-.71 2.78-.47.79-1.16 1.4-2.05 1.82z" fill="#FFF"/></symbol><symbol viewBox="0 0 302 151" id="icon_component-product-carousel"><path fill="#DBF1F9" d="M37 13h51v60H37zM125 13h51v60h-51zM213 13h51v60h-51z"/><path d="M99 124V4H26v120h73m4 4H22V0h81v128z" fill="#DBF1F9"/><path fill="#DBF1F9" d="M37 111h51v5H37zM48 101h29v5H48zM187 124V4h-73v120h73m4 4h-81V0h81v128z"/><path fill="#DBF1F9" d="M125 111h51v5h-51zM136 101h29v5h-29zM275 124V4h-73v120h73m4 4h-81V0h81v128z"/><path fill="#DBF1F9" d="M213 111h51v5h-51zM224 101h29v5h-29z"/><circle cx="151" cy="145" r="6" fill="#DBF1F9"/><circle cx="131" cy="145" r="6" fill="#F99E6E"/><circle cx="171" cy="145" r="6" fill="#DBF1F9"/><path d="M13.01 70.82l-3.19 3.19-9.83-9.83.18-.18-.18-.18 9.83-9.83 3.19 3.19L6.2 64l6.81 6.82zM302.01 64.18l-9.83 9.83-3.19-3.19L295.8 64l-6.81-6.82 3.19-3.19 9.83 9.83-.18.18.18.18z" fill="#F99E6E"/><path d="M62.67 89.91c-1.5 0-2.7-.79-3.3-2.01h4.39v-1.37h-4.84c-.02-.18-.02-.38-.02-.56 0-.22 0-.42.02-.61h4.84v-1.35h-4.37c.61-1.21 1.8-1.98 3.28-1.98 1.24 0 2.32.77 2.81 1.74l2.21-1.08c-.85-1.49-2.38-2.93-5.02-2.93-2.92 0-5.32 1.65-6.11 4.25h-.93v1.35h.68c-.02.19-.04.39-.04.61 0 .18.02.38.04.56h-.68v1.37h.91c.8 2.61 3.19 4.28 6.13 4.28 2.64 0 4.16-1.46 5.02-2.95l-2.21-1.06c-.49.99-1.57 1.74-2.81 1.74zM151.67 89.91c-1.5 0-2.7-.79-3.3-2.01h4.39v-1.37h-4.84c-.02-.18-.02-.38-.02-.56 0-.22 0-.42.02-.61h4.84v-1.35h-4.37c.61-1.21 1.8-1.98 3.28-1.98 1.24 0 2.32.77 2.81 1.74l2.21-1.08c-.85-1.49-2.38-2.93-5.02-2.93-2.92 0-5.32 1.65-6.11 4.25h-.93v1.35h.68c-.02.19-.04.39-.04.61 0 .18.02.38.04.56h-.68v1.37h.91c.8 2.61 3.19 4.28 6.13 4.28 2.64 0 4.16-1.46 5.02-2.95l-2.21-1.06c-.49.99-1.57 1.74-2.81 1.74zM239.67 89.91c-1.5 0-2.7-.79-3.3-2.01h4.39v-1.37h-4.84c-.02-.18-.02-.38-.02-.56 0-.22 0-.42.02-.61h4.84v-1.35h-4.37c.61-1.21 1.8-1.98 3.28-1.98 1.24 0 2.32.77 2.81 1.74l2.21-1.08c-.85-1.49-2.38-2.93-5.02-2.93-2.92 0-5.32 1.65-6.11 4.25h-.93v1.35h.68c-.02.19-.04.39-.04.61 0 .18.02.38.04.56h-.68v1.37h.91c.8 2.61 3.19 4.28 6.13 4.28 2.64 0 4.16-1.46 5.02-2.95l-2.21-1.06c-.49.99-1.57 1.74-2.81 1.74z" fill="#DBF1F9"/></symbol><symbol viewBox="0 0 256 152" id="icon_component-static-cms-block"><path d="M252 148V4H4v144h248m4 4H0V0h256v152z" fill="#DBF1F9"/><path d="M217 130v5h-20v-5h20m-30 0v5h-20v-5h20m-30 0v5h-20v-5h20m-30 0v5h-20v-5h20m-30 0v5H78v-5h19M217 15v5h-20v-5h20m-30 0v5h-20v-5h20m-30 0v5h-20v-5h20m-30 0v5h-20v-5h20m-30 0v5H78v-5h19M60 36h5v20h-5V36m0 30h5v20h-5V66m0 30h5v19h-5V96M236 36h5v20h-5V36m0 30h5v20h-5V66m0 30h5v19h-5V96M60 124h11v11H60zM60 15h11v11H60zM230 15h11v11h-11zM230 124h11v11h-11zM80 34h107v5H80zM80 44h85v5H80zM80 64h85v5H80zM80 74h85v5H80zM80 84h75v5H80zM80 54h97v5H80z" fill="#DBF1F9"/><path fill="#F99E6E" d="M15 15h35v34H15zM15 60h35v34H15zM15 103h35v34H15z"/><path d="M26.13 40.4h6.67c2.01 0 3.6-.44 4.77-1.34 1.17-.89 1.75-2.12 1.75-3.67 0-1.05-.23-1.9-.71-2.56-.48-.65-1.25-1.12-2.31-1.4v-.12c.81-.2 1.45-.63 1.95-1.31.49-.68.73-1.5.73-2.46 0-1.46-.56-2.54-1.69-3.23s-2.86-1.04-5.18-1.04h-5.98V40.4zm4.63-13.62h1.3c1.45 0 2.18.48 2.18 1.44 0 .54-.18.94-.55 1.22-.36.27-.87.41-1.54.41h-1.39v-3.07zm1.53 6.45c.74 0 1.3.15 1.68.46.39.3.58.74.58 1.31 0 1.22-.72 1.83-2.16 1.83h-1.63v-3.6h1.53zM36.47 81.57h-2.63l1.83-10.33h2.62l.5-2.83h-9.37l-.5 2.83h2.62l-1.82 10.33H27.1l-.5 2.83h9.37l.5-2.83zM24.28 129.58v-.99h15.11v.99H24.28zm10.66-4.62c-.89.43-1.95.64-3.16.64-1.84 0-3.26-.47-4.28-1.41-1.02-.94-1.52-2.23-1.52-3.86v-9.2h3.01v8.74c0 1.1.23 1.9.67 2.42.44.51 1.17.77 2.2.77.98 0 1.7-.26 2.15-.78.44-.51.67-1.33.67-2.43v-8.72h3.02v9.23c0 1.06-.24 1.98-.71 2.78-.47.79-1.16 1.4-2.05 1.82z" fill="#FFF"/></symbol></svg>