<?xml version="1.0" encoding="utf-8"?>
<svg xmlns="http://www.w3.org/2000/svg"
	xmlns:xlink="http://www.w3.org/1999/xlink"
	width="33px" height="33px" viewBox="0 0 33 33">
<circle cx="16.50" cy="16.50" r="16.50" fill="rgb(0,123,181)"/><path fillRule="evenodd" d="M 20.78 23C 20.78 23 20.78 17.4 20.78 17.4 20.78 15.99 20.29 15.03 19.07 15.03 18.13 15.03 17.57 15.68 17.32 16.3 17.23 16.53 17.21 16.84 17.21 17.15 17.21 17.15 17.21 23 17.21 23 17.21 23 14 23 14 23 14 23 14.04 13.62 14 12.64 14 12.64 17.21 12.64 17.21 12.64 17.21 12.64 17.21 14.07 17.21 14.07 17.67 13.36 18.43 12.28 20.23 12.28 22.46 12.28 24 13.78 24 17 24 17 24 23 24 23 24 23 20.78 23 20.78 23ZM 10.6 11.21C 10.6 11.21 10.58 11.21 10.58 11.21 9.62 11.21 9 10.5 9 9.61 9 8.69 9.64 8 10.62 8 11.6 8 12.2 8.69 12.22 9.61 12.22 10.5 11.6 11.21 10.6 11.21ZM 12.21 23C 12.21 23 9.01 23 9.01 23 9.01 23 9.01 12.64 9.01 12.64 9.01 12.64 12.21 12.64 12.21 12.64 12.21 12.64 12.21 23 12.21 23Z" fill="rgb(255,255,255)"/></svg>