<?xml version="1.0" encoding="utf-8"?>
<svg xmlns="http://www.w3.org/2000/svg"
	xmlns:xlink="http://www.w3.org/1999/xlink"
	width="33px" height="33px" viewBox="0 0 33 33">
<circle cx="16.50" cy="16.50" r="16.50" fill="rgb(59,89,151)"/><path fillRule="evenodd" d="M 17.78 25.01C 17.78 25.01 17.78 15.71 17.78 15.71 17.78 15.71 20.5 15.71 20.5 15.71 20.5 15.71 20.9 12.91 20.9 12.91 20.9 12.91 17.78 12.91 17.78 12.91 17.78 12.91 17.78 11.54 17.78 11.54 17.78 10.62 18.25 9.8 19.53 9.8 19.53 9.8 21.01 9.8 21.01 9.8 21.01 9.8 21.01 7.12 21.01 7.12 20.73 7.08 19.78 6.99 18.65 6.99 16.3 6.99 14.55 8.49 14.55 11.23 14.55 11.23 14.55 12.91 14.55 12.91 14.55 12.91 12 12.91 12 12.91 12 12.91 12 15.71 12 15.71 12 15.71 14.55 15.71 14.55 15.71 14.55 15.71 14.55 25.01 14.55 25.01 14.55 25.01 17.78 25.01 17.78 25.01Z" fill="rgb(255,255,255)"/></svg>