<?xml version="1.0" encoding="utf-8"?>
<svg xmlns="http://www.w3.org/2000/svg"
	xmlns:xlink="http://www.w3.org/1999/xlink"
	width="33px" height="33px" viewBox="0 0 33 33">
<circle cx="16.50" cy="16.50" r="16.50" fill="rgb(237,83,83)"/><path fillRule="evenodd" d="M 26 16.12C 26 16.12 24.13 16.12 24.13 16.12 24.13 16.12 24.13 18 24.13 18 24.13 18 22.89 18 22.89 18 22.89 18 22.89 16.12 22.89 16.12 22.89 16.12 21.01 16.12 21.01 16.12 21.01 16.12 21.01 14.88 21.01 14.88 21.01 14.88 22.89 14.88 22.89 14.88 22.89 14.88 22.89 12.99 22.89 12.99 22.89 12.99 24.13 12.99 24.13 12.99 24.13 12.99 24.13 14.88 24.13 14.88 24.13 14.88 26 14.88 26 14.88 26 14.88 26 16.12 26 16.12ZM 17.6 8.85C 17.75 8.94 17.92 9.08 18.11 9.26 18.28 9.44 18.46 9.67 18.63 9.94 18.8 10.19 18.94 10.49 19.07 10.84 19.17 11.18 19.22 11.59 19.22 12.05 19.21 12.89 19.02 13.57 18.66 14.08 18.48 14.32 18.3 14.55 18.1 14.76 17.88 14.96 17.65 15.18 17.4 15.39 17.26 15.54 17.13 15.7 17.01 15.89 16.87 16.08 16.79 16.3 16.79 16.56 16.79 16.8 16.87 17.01 17.01 17.17 17.14 17.32 17.26 17.45 17.37 17.57 17.37 17.57 18.18 18.23 18.18 18.23 18.68 18.64 19.12 19.08 19.49 19.58 19.85 20.08 20.03 20.73 20.05 21.54 20.05 22.68 19.54 23.7 18.52 24.58 17.47 25.5 15.95 25.97 13.97 26 12.3 25.98 11.06 25.63 10.24 24.94 9.41 24.3 9 23.53 9 22.63 9 22.19 9.13 21.7 9.4 21.17 9.66 20.63 10.14 20.16 10.82 19.75 11.59 19.31 12.4 19.02 13.24 18.87 14.08 18.75 14.78 18.68 15.33 18.67 15.16 18.44 15.01 18.2 14.88 17.95 14.72 17.7 14.64 17.4 14.64 17.06 14.64 16.85 14.67 16.67 14.73 16.53 14.78 16.39 14.83 16.25 14.88 16.13 14.61 16.16 14.35 16.17 14.11 16.17 12.85 16.16 11.89 15.76 11.22 14.99 10.53 14.26 10.18 13.42 10.18 12.46 10.18 11.3 10.67 10.25 11.66 9.3 12.33 8.75 13.03 8.39 13.76 8.22 14.48 8.07 15.16 8 15.79 8 15.79 8 20.53 8 20.53 8 20.53 8 19.07 8.85 19.07 8.85 19.07 8.85 17.6 8.85 17.6 8.85ZM 14.52 19.36C 14.03 19.43 13.52 19.54 13.01 19.69 12.89 19.74 12.72 19.81 12.5 19.9 12.28 20 12.06 20.14 11.83 20.33 11.61 20.52 11.43 20.76 11.28 21.04 11.1 21.34 11.01 21.7 11.01 22.13 11.01 22.96 11.39 23.64 12.15 24.18 12.87 24.72 13.85 25 15.1 25.01 16.21 25 17.07 24.75 17.66 24.27 18.23 23.8 18.52 23.2 18.52 22.46 18.52 21.86 18.32 21.34 17.93 20.89 17.51 20.47 16.86 19.95 15.98 19.34 15.83 19.32 15.65 19.31 15.45 19.31 15.33 19.3 15.02 19.31 14.52 19.36ZM 16.49 10.32C 16.27 9.87 15.97 9.5 15.61 9.21 15.23 8.94 14.8 8.8 14.32 8.78 13.67 8.8 13.14 9.06 12.71 9.56 12.35 10.08 12.18 10.67 12.2 11.31 12.2 12.17 12.45 13.06 12.95 13.98 13.19 14.41 13.51 14.78 13.89 15.08 14.28 15.38 14.72 15.53 15.21 15.53 15.84 15.51 16.36 15.28 16.77 14.86 16.97 14.56 17.1 14.25 17.16 13.94 17.19 13.62 17.21 13.36 17.21 13.14 17.21 12.21 16.97 11.27 16.49 10.32Z" fill="rgb(255,255,255)"/></svg>