<svg xmlns="http://www.w3.org/2000/svg" viewBox="0 0 1135 68"><rect x="391" width="353" height="39" rx="2" fill="#E2E2E2"/><path d="M733.59 30.39c-.6.72-1.68.82-2.41.22l-3.79-3.79c-.53-.64-.53-1.56 0-2.19.6-.73 1.68-.83 2.41-.22l3.79 3.79c.53.63.53 1.55 0 2.19zm-13.61-4.42c-4.96 0-8.98-4.03-8.97-8.99 0-4.96 4.02-8.98 8.98-8.98 4.95.01 8.97 4.03 8.97 8.99s-4.03 8.98-8.98 8.98zm.01-14.96c-3.31 0-6 2.68-6 5.99s2.69 5.99 6 5.99 6-2.68 6-5.99-2.68-5.99-6-5.99z" fill="#FFF"/><path d="M1003.85 24.86c-.03.05-.06.1-.09.14-.4.57-1.16.7-1.71.3-.55-.41-.68-1.2-.28-1.77 2.3-3.85 2.4-8.7.27-12.65-3.26-6.02-10.61-8.17-16.43-4.81-5.82 3.37-7.9 10.97-4.65 16.99.04.06.08.12.11.19.27.64 0 1.38-.62 1.67-.61.29-1.34 0-1.62-.63-1.2-2.23-1.83-4.74-1.83-7.29 0-8.28 6.49-15 14.5-15 2.68 0 5.32.77 7.6 2.23 6.82 4.34 8.95 13.58 4.75 20.63zm-12.35-4.14c-2.84 0-5.15-2.36-5.17-5.29v-1.62c0-2.95 2.31-5.35 5.17-5.35s5.17 2.4 5.17 5.35v1.56c0 2.96-2.31 5.35-5.17 5.35zm2.71-6.94c-.08-1.43-1.18-2.57-2.56-2.65-1.5-.09-2.78 1.1-2.87 2.65v1.61c.08 1.43 1.18 2.57 2.56 2.65 1.5.08 2.78-1.1 2.87-2.65v-1.61zm-6.62 8.63c.32 0 .63.12.87.35 1.73 1.56 4.3 1.56 6.03 0 .23-.23.54-.35.86-.35 2.25 0 5.5 2.13 5.5 5.44 0 .39-.16.76-.45 1-5.23 4.18-12.53 4.18-17.76 0-.29-.24-.47-.61-.47-1 0-3.1 3.31-5.44 5.42-5.44zm3.91 7.05c2.45.01 4.84-.75 6.85-2.19-.41-1.17-1.39-2.04-2.58-2.28-2.52 1.95-5.98 1.95-8.5 0-1.15.31-2.1 1.15-2.58 2.28 2 1.43 4.38 2.2 6.81 2.19zM1055.51 32.01c-.25 0-.49-.07-.69-.2-4.11-2.59-7.87-5.69-11.2-9.23-1.28-1.37-4.61-5.89-4.61-10.41.01-5.61 4.54-10.16 10.13-10.16 2.32-.01 4.57.79 6.37 2.26 1.79-1.47 4.04-2.27 6.36-2.26 5.59 0 10.12 4.55 10.13 10.16 0 4.5-3.33 9.04-4.61 10.41-3.33 3.54-7.09 6.64-11.2 9.23-.2.13-.44.2-.68.2zm-6.37-27.46c-4.19 0-7.59 3.42-7.6 7.62 0 3.4 2.64 7.3 3.92 8.65 3 3.2 6.37 6.02 10.05 8.4 3.66-2.37 7.04-5.17 10.04-8.35 1.28-1.4 3.89-5.3 3.89-8.7 0-4.2-3.39-7.62-7.58-7.62-2.06 0-4.04.84-5.47 2.33-.23.24-.56.38-.89.38-.34 0-.66-.14-.9-.38-1.42-1.5-3.4-2.34-5.46-2.33zM1133 6.65l-.8 9.91c-.04.58-.44 1.05-.98 1.18l-18.6 4.89v2.41c.44-.18.91-.27 1.38-.27 2.17 0 3.93 1.84 3.93 4.12 0 2.27-1.76 4.12-3.93 4.12-2.18 0-3.94-1.85-3.94-4.12v-.24-.16l.06-6.91c.01-.59.4-1.11.95-1.26l18.66-4.9.6-7.54h-19.89l1.24 7.43c.12.71-.34 1.4-1.03 1.52h-.21c-.62 0-1.14-.46-1.25-1.1l-1.78-11.1h-1.27c-.69-.07-1.2-.71-1.14-1.43.05-.62.49-1.11 1.07-1.2h2.34c.61 0 1.14.47 1.24 1.1l.35 2.14h21.74c.69 0 1.26.59 1.26 1.32v.09zm-19.02 23.72h.02c.78-.01 1.4-.68 1.39-1.5-.01-.82-.65-1.47-1.43-1.46-.77.01-1.39.67-1.39 1.48 0 .81.63 1.48 1.41 1.48zm13.3-5.6c2.17-.01 3.94 1.83 3.94 4.11.01 2.27-1.75 4.12-3.92 4.13-2.18 0-3.94-1.84-3.95-4.11v-.01c0-2.28 1.76-4.12 3.93-4.12zm0 5.6v-.02c.78.01 1.42-.64 1.44-1.45.01-.82-.61-1.49-1.39-1.51-.78-.02-1.42.63-1.44 1.45v.05c0 .8.62 1.46 1.39 1.48z" fill="#ACACAC"/><rect y="59" width="111" height="9" rx="2" fill="#D3D3D3"/><rect x="128" y="59" width="111" height="9" rx="2" fill="#D3D3D3"/><rect x="256" y="59" width="111" height="9" rx="2" fill="#D3D3D3"/><rect x="384" y="59" width="111" height="9" rx="2" fill="#D3D3D3"/><rect x="512" y="59" width="111" height="9" rx="2" fill="#D3D3D3"/><rect x="640" y="59" width="111" height="9" rx="2" fill="#D3D3D3"/><rect x="768" y="59" width="111" height="9" rx="2" fill="#D3D3D3"/><rect x="896" y="59" width="111" height="9" rx="2" fill="#D3D3D3"/><rect x="1024" y="59" width="111" height="9" rx="2" fill="#D3D3D3"/><path d="M81.26 25.43c-1.7 1.66-3.79 2.48-6.27 2.48-2.48 0-4.57-.82-6.26-2.48-1.7-1.66-2.55-3.72-2.55-6.18 0-2.46.85-4.52 2.55-6.18 1.69-1.66 3.78-2.48 6.26-2.48s4.57.82 6.27 2.48c1.69 1.66 2.54 3.72 2.54 6.18 0 2.46-.85 4.52-2.54 6.18zm-2.72-10c-.95-1.05-2.14-1.58-3.54-1.58s-2.58.53-3.54 1.58c-.95 1.06-1.43 2.34-1.43 3.83 0 1.5.48 2.77 1.43 3.82.96 1.05 2.14 1.57 3.54 1.57s2.59-.52 3.54-1.57c.96-1.05 1.44-2.32 1.44-3.82 0-1.49-.48-2.77-1.44-3.83zM52.1 27.94c-2.47 0-4.54-.82-6.21-2.45-1.67-1.63-2.5-3.69-2.5-6.18 0-2.49.85-4.56 2.55-6.23 1.7-1.66 3.76-2.49 6.17-2.49s4.5.79 6.28 2.37l-1.95 2.81c-.75-.66-1.44-1.11-2.08-1.36-.63-.24-1.31-.37-2.05-.37-1.42 0-2.62.49-3.6 1.45-.97.97-1.46 2.25-1.46 3.83 0 1.59.47 2.85 1.4 3.81.94.95 2.06 1.42 3.35 1.42 1.3 0 2.38-.24 3.24-.74V19.2h3.77v5.95c-1.67 1.86-3.97 2.79-6.91 2.79zm-24.53-.03c-2.48 0-4.57-.82-6.26-2.48-1.7-1.66-2.55-3.72-2.55-6.18 0-2.46.85-4.52 2.55-6.18 1.69-1.66 3.78-2.48 6.26-2.48s4.57.82 6.26 2.48c1.7 1.66 2.55 3.72 2.55 6.18 0 2.46-.85 4.52-2.55 6.18-1.69 1.66-3.78 2.48-6.26 2.48zm3.55-12.48c-.96-1.05-2.14-1.58-3.54-1.58s-2.58.53-3.54 1.58c-.96 1.06-1.44 2.34-1.44 3.83 0 1.5.48 2.77 1.44 3.82.96 1.05 2.14 1.57 3.54 1.57s2.58-.52 3.54-1.57 1.44-2.32 1.44-3.82c0-1.49-.48-2.77-1.44-3.83zM1.75 10.97h3.74v13.44h7.15v3.34H1.75V10.97z" fill="#ACACAC"/></svg>