<svg xmlns="http://www.w3.org/2000/svg" viewBox="0 0 1137 206"><rect width="53" height="19" rx="2" fill="#D3D3D3"/><rect y="39" width="103" height="9" rx="2" fill="#D3D3D3"/><rect y="58" width="113" height="9" rx="2" fill="#D3D3D3"/><rect y="77" width="93" height="9" rx="2" fill="#D3D3D3"/><rect y="96" width="103" height="9" rx="2" fill="#D3D3D3"/><rect y="115" width="73" height="9" rx="2" fill="#D3D3D3"/><rect y="134" width="93" height="9" rx="2" fill="#D3D3D3"/><rect y="197" width="313" height="9" rx="2" fill="#D3D3D3"/><rect x="1044" y="197" width="93" height="9" rx="2" fill="#D3D3D3"/><rect x="185" width="53" height="19" rx="2" fill="#D3D3D3"/><rect x="185" y="39" width="103" height="9" rx="2" fill="#D3D3D3"/><rect x="185" y="58" width="113" height="9" rx="2" fill="#D3D3D3"/><rect x="185" y="77" width="93" height="9" rx="2" fill="#D3D3D3"/><rect x="185" y="96" width="103" height="9" rx="2" fill="#D3D3D3"/><rect x="185" y="115" width="73" height="9" rx="2" fill="#D3D3D3"/><rect x="185" y="134" width="93" height="9" rx="2" fill="#D3D3D3"/><rect x="383" width="53" height="19" rx="2" fill="#D3D3D3"/><rect x="383" y="39" width="103" height="9" rx="2" fill="#D3D3D3"/><rect x="383" y="58" width="113" height="9" rx="2" fill="#D3D3D3"/><rect x="383" y="77" width="93" height="9" rx="2" fill="#D3D3D3"/><rect x="383" y="96" width="103" height="9" rx="2" fill="#D3D3D3"/><rect x="383" y="115" width="73" height="9" rx="2" fill="#D3D3D3"/><rect x="383" y="134" width="93" height="9" rx="2" fill="#D3D3D3"/><rect x="583" width="53" height="19" rx="2" fill="#D3D3D3"/><rect x="583" y="39" width="103" height="9" rx="2" fill="#D3D3D3"/><rect x="583" y="58" width="113" height="9" rx="2" fill="#D3D3D3"/><rect x="583" y="77" width="93" height="9" rx="2" fill="#D3D3D3"/><rect x="583" y="96" width="103" height="9" rx="2" fill="#D3D3D3"/><rect x="583" y="115" width="73" height="9" rx="2" fill="#D3D3D3"/><rect x="583" y="134" width="93" height="9" rx="2" fill="#D3D3D3"/><rect x="783" width="53" height="19" rx="2" fill="#D3D3D3"/><rect x="1084" width="53" height="19" rx="2" fill="#D3D3D3"/><rect x="1084" y="29" width="53" height="19" rx="2" fill="#D3D3D3"/><rect x="1084" y="58" width="53" height="19" rx="2" fill="#D3D3D3"/><rect x="783" y="39" width="103" height="9" rx="2" fill="#D3D3D3"/><rect x="783" y="58" width="113" height="9" rx="2" fill="#D3D3D3"/><rect x="783" y="77" width="93" height="9" rx="2" fill="#D3D3D3"/><rect x="783" y="96" width="103" height="9" rx="2" fill="#D3D3D3"/><rect x="783" y="115" width="73" height="9" rx="2" fill="#D3D3D3"/><rect x="783" y="134" width="93" height="9" rx="2" fill="#D3D3D3"/></svg>