<?xml version="1.0" encoding="utf-8"?>
<svg xmlns="http://www.w3.org/2000/svg"
	xmlns:xlink="http://www.w3.org/1999/xlink"
	width="302px" height="152px" viewBox="0 0 302 152">
<g><path fillRule="evenodd" d="M 275 148C 275 148 275 4 275 4 275 4 27 4 27 4 27 4 27 148 27 148 27 148 275 148 275 148M 279 152C 279 152 23 152 23 152 23 152 23 0 23 0 23 0 279 0 279 0 279 0 279 152 279 152 279 152 279 152 279 152Z" fill="rgb(219,241,249)"/><rect x="36" y="14" width="229" height="124" fill="rgb(219,241,249)"/><rect x="86" y="34" width="131" height="15" fill="rgb(255,255,255)"/><rect x="101" y="54" width="101" height="15" fill="rgb(255,255,255)"/><circle cx="151.00" cy="122.00" r="6.00" fill="rgb(255,255,255)"/><circle cx="131.00" cy="122.00" r="6.00" fill="rgb(249,158,110)"/><circle cx="171.00" cy="122.00" r="6.00" fill="rgb(255,255,255)"/><path fillRule="evenodd" d="M 13.01 82.82C 13.01 82.82 9.82 86.01 9.82 86.01 9.82 86.01-0.01 76.18-0.01 76.18-0.01 76.18 0.17 76 0.17 76 0.17 76-0.01 75.82-0.01 75.82-0.01 75.82 9.82 65.99 9.82 65.99 9.82 65.99 13.01 69.18 13.01 69.18 13.01 69.18 6.2 76 6.2 76 6.2 76 13.01 82.82 13.01 82.82Z" fill="rgb(249,158,110)"/><path fillRule="evenodd" d="M 302.01 76.18C 302.01 76.18 292.18 86.01 292.18 86.01 292.18 86.01 288.99 82.82 288.99 82.82 288.99 82.82 295.8 76 295.8 76 295.8 76 288.99 69.18 288.99 69.18 288.99 69.18 292.18 65.99 292.18 65.99 292.18 65.99 302.01 75.82 302.01 75.82 302.01 75.82 301.83 76 301.83 76 301.83 76 302.01 76.18 302.01 76.18Z" fill="rgb(249,158,110)"/></g></svg>