<svg xmlns="http://www.w3.org/2000/svg" viewBox="0 0 83 18"><path d="M80.26 15.43c-1.7 1.66-3.79 2.48-6.27 2.48-2.48 0-4.57-.82-6.26-2.48-1.7-1.66-2.54-3.72-2.54-6.18 0-2.46.84-4.52 2.54-6.18C69.42 1.41 71.51.59 73.99.59s4.57.82 6.27 2.48c1.69 1.66 2.54 3.72 2.54 6.18 0 2.46-.85 4.52-2.54 6.18zm-2.71-10c-.96-1.05-2.15-1.58-3.54-1.58-1.41 0-2.58.53-3.54 1.58-.96 1.06-1.44 2.34-1.44 3.83 0 1.5.48 2.77 1.44 3.82.96 1.05 2.13 1.57 3.54 1.57 1.39 0 2.58-.52 3.54-1.57s1.43-2.32 1.43-3.82c0-1.49-.47-2.77-1.43-3.83zM51.1 17.94c-2.47 0-4.54-.82-6.21-2.45-1.67-1.63-2.5-3.69-2.5-6.18 0-2.49.85-4.56 2.55-6.23C46.65 1.42 48.7.59 51.11.59s4.5.79 6.28 2.37l-1.95 2.81c-.75-.66-1.44-1.11-2.07-1.36-.64-.24-1.32-.37-2.06-.37-1.42 0-2.62.49-3.6 1.45-.97.97-1.46 2.25-1.46 3.83 0 1.59.47 2.85 1.4 3.81.94.95 2.06 1.42 3.35 1.42 1.3 0 2.38-.24 3.24-.74V9.2h3.77v5.95c-1.67 1.86-3.97 2.79-6.91 2.79zm-24.53-.03c-2.48 0-4.57-.82-6.26-2.48-1.7-1.66-2.55-3.72-2.55-6.18 0-2.46.85-4.52 2.55-6.18C22 1.41 24.09.59 26.57.59s4.57.82 6.26 2.48c1.7 1.66 2.55 3.72 2.55 6.18 0 2.46-.85 4.52-2.55 6.18-1.69 1.66-3.78 2.48-6.26 2.48zm3.55-12.48c-.96-1.05-2.14-1.58-3.54-1.58s-2.58.53-3.54 1.58c-.96 1.06-1.44 2.34-1.44 3.83 0 1.5.48 2.77 1.44 3.82.96 1.05 2.14 1.57 3.54 1.57s2.58-.52 3.54-1.57 1.44-2.32 1.44-3.82c0-1.49-.48-2.77-1.44-3.83zM.75.97h3.74v13.44h7.15v3.34H.75V.97z" fill="#ACACAC"/></svg>