<svg xmlns="http://www.w3.org/2000/svg" viewBox="0 0 263 324"><path fill="#FFF" d="M0 0h263v244H0z"/><rect x="10" y="265" width="153" height="9" rx="2" fill="#D3D3D3"/><rect x="10" y="279" width="103" height="9" rx="2" fill="#D3D3D3"/><rect x="10" y="305" width="53" height="19" rx="2" fill="#F99E6F"/><path d="M165.02 91.36h-3.26l-4.57 26.86c-.27 1.53-1.62 2.65-3.2 2.65h-.55c-1.77-.3-2.95-1.95-2.65-3.69l2.92-16.82h-50.88l1.55 17.09 47.97 11.85c1.42.36 2.42 1.61 2.44 3.06l.16 16.69c.01.13.01.26 0 .38v.59c0 5.5-4.53 9.96-10.12 9.96-5.59 0-10.12-4.46-10.12-9.96 0-5.51 4.53-9.97 10.12-9.97 1.21.01 2.41.23 3.54.65v-5.82l-47.82-11.81c-1.39-.31-2.4-1.46-2.52-2.85l-2.05-22.83c-.01-.08-.01-.15-.01-.23 0-1.77 1.46-3.19 3.25-3.19h55.61l1.17-6.3c.27-1.53 1.62-2.65 3.2-2.65h6c1.49.21 2.64 1.41 2.77 2.88.16 1.76-1.16 3.31-2.95 3.46zm-20.1 55.08c-2-.03-3.65 1.55-3.67 3.53-.03 1.98 1.58 3.6 3.58 3.62h.05c2 0 3.63-1.6 3.63-3.57 0-1.96-1.6-3.55-3.59-3.58zm-34.23-6.39c5.58.02 10.09 4.47 10.09 9.97v.02c-.01 5.5-4.55 9.95-10.14 9.94-5.59-.01-10.11-4.48-10.09-9.99.01-5.5 4.55-9.95 10.14-9.94zm0 13.5v.04c1.97-.03 3.56-1.63 3.56-3.57v-.12c-.04-1.97-1.7-3.54-3.7-3.51-2.01.04-3.6 1.67-3.56 3.65.03 1.97 1.69 3.54 3.7 3.51z" fill="#F99E6F"/></svg>
