<svg xmlns="http://www.w3.org/2000/svg" viewBox="0 0 80 66"><path d="M77.61 61.45c-.44.95-1.19 1.72-2.14 2.15-1.93 1.5-4.35 2.4-6.97 2.4h-57C5.17 66 .01 60.8.01 54.42V10C.01 4.48 4.47-.01 9.95-.01H68.5c6.34 0 11.49 5.19 11.49 11.58v42.85c0 2.65-.89 5.08-2.38 7.03zm-1.58-49.88c0-4.19-3.38-7.59-7.53-7.59H9.95c-3.29 0-5.98 2.7-5.98 6.02v44.42c0 3.02 1.77 5.6 4.3 6.83l21.4-19c1.38-1.21 3.45-1.15 4.74.16l8.02 8.07L61.67 33.4c1.93-1.71 4.85-1.62 6.67.21l7.69 7.75V11.57zM21.75 28.35c-3.98 0-7.23-3.27-7.23-7.3 0-4.02 3.25-7.29 7.23-7.29 4 0 7.24 3.27 7.24 7.29 0 4.03-3.24 7.3-7.24 7.3z"/></svg>
