<?xml version="1.0" encoding="utf-8"?>
<svg xmlns="http://www.w3.org/2000/svg"
	xmlns:xlink="http://www.w3.org/1999/xlink"
	width="302px" height="151px" viewBox="0 0 302 151">
<rect x="37" y="13" width="51" height="60" fill="rgb(219,241,249)"/><rect x="125" y="13" width="51" height="60" fill="rgb(219,241,249)"/><rect x="213" y="13" width="51" height="60" fill="rgb(219,241,249)"/><path fillRule="evenodd" d="M 99 124C 99 124 99 4 99 4 99 4 26 4 26 4 26 4 26 124 26 124 26 124 99 124 99 124M 103 128C 103 128 22 128 22 128 22 128 22 0 22 0 22 0 103 0 103 0 103 0 103 128 103 128 103 128 103 128 103 128Z" fill="rgb(219,241,249)"/><rect x="37" y="111" width="51" height="5" fill="rgb(219,241,249)"/><rect x="48" y="101" width="29" height="5" fill="rgb(219,241,249)"/><path fillRule="evenodd" d="M 187 124C 187 124 187 4 187 4 187 4 114 4 114 4 114 4 114 124 114 124 114 124 187 124 187 124M 191 128C 191 128 110 128 110 128 110 128 110 0 110 0 110 0 191 0 191 0 191 0 191 128 191 128 191 128 191 128 191 128Z" fill="rgb(219,241,249)"/><rect x="125" y="111" width="51" height="5" fill="rgb(219,241,249)"/><rect x="136" y="101" width="29" height="5" fill="rgb(219,241,249)"/><path fillRule="evenodd" d="M 275 124C 275 124 275 4 275 4 275 4 202 4 202 4 202 4 202 124 202 124 202 124 275 124 275 124M 279 128C 279 128 198 128 198 128 198 128 198 0 198 0 198 0 279 0 279 0 279 0 279 128 279 128 279 128 279 128 279 128Z" fill="rgb(219,241,249)"/><rect x="213" y="111" width="51" height="5" fill="rgb(219,241,249)"/><rect x="224" y="101" width="29" height="5" fill="rgb(219,241,249)"/><circle cx="151.00" cy="145.00" r="6.00" fill="rgb(219,241,249)"/><circle cx="131.00" cy="145.00" r="6.00" fill="rgb(249,158,110)"/><circle cx="171.00" cy="145.00" r="6.00" fill="rgb(219,241,249)"/><path fillRule="evenodd" d="M 13.01 70.82C 13.01 70.82 9.82 74.01 9.82 74.01 9.82 74.01-0.01 64.18-0.01 64.18-0.01 64.18 0.17 64 0.17 64 0.17 64-0.01 63.82-0.01 63.82-0.01 63.82 9.82 53.99 9.82 53.99 9.82 53.99 13.01 57.18 13.01 57.18 13.01 57.18 6.2 64 6.2 64 6.2 64 13.01 70.82 13.01 70.82Z" fill="rgb(249,158,110)"/><path fillRule="evenodd" d="M 302.01 64.18C 302.01 64.18 292.18 74.01 292.18 74.01 292.18 74.01 288.99 70.82 288.99 70.82 288.99 70.82 295.8 64 295.8 64 295.8 64 288.99 57.18 288.99 57.18 288.99 57.18 292.18 53.99 292.18 53.99 292.18 53.99 302.01 63.82 302.01 63.82 302.01 63.82 301.83 64 301.83 64 301.83 64 302.01 64.18 302.01 64.18Z" fill="rgb(249,158,110)"/><path fillRule="evenodd" d="M 62.67 89.91C 61.17 89.91 59.97 89.12 59.37 87.9 59.37 87.9 63.76 87.9 63.76 87.9 63.76 87.9 63.76 86.53 63.76 86.53 63.76 86.53 58.92 86.53 58.92 86.53 58.9 86.35 58.9 86.15 58.9 85.97 58.9 85.75 58.9 85.55 58.92 85.36 58.92 85.36 63.76 85.36 63.76 85.36 63.76 85.36 63.76 84.01 63.76 84.01 63.76 84.01 59.39 84.01 59.39 84.01 60 82.8 61.19 82.03 62.67 82.03 63.91 82.03 64.99 82.8 65.48 83.77 65.48 83.77 67.69 82.69 67.69 82.69 66.84 81.2 65.31 79.76 62.67 79.76 59.75 79.76 57.35 81.41 56.56 84.01 56.56 84.01 55.63 84.01 55.63 84.01 55.63 84.01 55.63 85.36 55.63 85.36 55.63 85.36 56.31 85.36 56.31 85.36 56.29 85.55 56.27 85.75 56.27 85.97 56.27 86.15 56.29 86.35 56.31 86.53 56.31 86.53 55.63 86.53 55.63 86.53 55.63 86.53 55.63 87.9 55.63 87.9 55.63 87.9 56.54 87.9 56.54 87.9 57.34 90.51 59.73 92.18 62.67 92.18 65.31 92.18 66.83 90.72 67.69 89.23 67.69 89.23 65.48 88.17 65.48 88.17 64.99 89.16 63.91 89.91 62.67 89.91Z" fill="rgb(219,241,249)"/><path fillRule="evenodd" d="M 151.67 89.91C 150.17 89.91 148.97 89.12 148.37 87.9 148.37 87.9 152.76 87.9 152.76 87.9 152.76 87.9 152.76 86.53 152.76 86.53 152.76 86.53 147.92 86.53 147.92 86.53 147.9 86.35 147.9 86.15 147.9 85.97 147.9 85.75 147.9 85.55 147.92 85.36 147.92 85.36 152.76 85.36 152.76 85.36 152.76 85.36 152.76 84.01 152.76 84.01 152.76 84.01 148.39 84.01 148.39 84.01 149 82.8 150.19 82.03 151.67 82.03 152.91 82.03 153.99 82.8 154.48 83.77 154.48 83.77 156.69 82.69 156.69 82.69 155.84 81.2 154.31 79.76 151.67 79.76 148.75 79.76 146.35 81.41 145.56 84.01 145.56 84.01 144.63 84.01 144.63 84.01 144.63 84.01 144.63 85.36 144.63 85.36 144.63 85.36 145.31 85.36 145.31 85.36 145.29 85.55 145.27 85.75 145.27 85.97 145.27 86.15 145.29 86.35 145.31 86.53 145.31 86.53 144.63 86.53 144.63 86.53 144.63 86.53 144.63 87.9 144.63 87.9 144.63 87.9 145.54 87.9 145.54 87.9 146.34 90.51 148.73 92.18 151.67 92.18 154.31 92.18 155.83 90.72 156.69 89.23 156.69 89.23 154.48 88.17 154.48 88.17 153.99 89.16 152.91 89.91 151.67 89.91Z" fill="rgb(219,241,249)"/><path fillRule="evenodd" d="M 239.67 89.91C 238.17 89.91 236.97 89.12 236.37 87.9 236.37 87.9 240.76 87.9 240.76 87.9 240.76 87.9 240.76 86.53 240.76 86.53 240.76 86.53 235.92 86.53 235.92 86.53 235.9 86.35 235.9 86.15 235.9 85.97 235.9 85.75 235.9 85.55 235.92 85.36 235.92 85.36 240.76 85.36 240.76 85.36 240.76 85.36 240.76 84.01 240.76 84.01 240.76 84.01 236.39 84.01 236.39 84.01 237 82.8 238.19 82.03 239.67 82.03 240.91 82.03 241.99 82.8 242.48 83.77 242.48 83.77 244.69 82.69 244.69 82.69 243.84 81.2 242.31 79.76 239.67 79.76 236.75 79.76 234.35 81.41 233.56 84.01 233.56 84.01 232.63 84.01 232.63 84.01 232.63 84.01 232.63 85.36 232.63 85.36 232.63 85.36 233.31 85.36 233.31 85.36 233.29 85.55 233.27 85.75 233.27 85.97 233.27 86.15 233.29 86.35 233.31 86.53 233.31 86.53 232.63 86.53 232.63 86.53 232.63 86.53 232.63 87.9 232.63 87.9 232.63 87.9 233.54 87.9 233.54 87.9 234.34 90.51 236.73 92.18 239.67 92.18 242.31 92.18 243.83 90.72 244.69 89.23 244.69 89.23 242.48 88.17 242.48 88.17 241.99 89.16 240.91 89.91 239.67 89.91Z" fill="rgb(219,241,249)"/></svg>