<svg xmlns="http://www.w3.org/2000/svg" viewBox="0 0 1148 225"><path fill="#FFF" d="M84 1h1064v224H84z"/><path d="M1124 220v5h-25v-5h25m-40 0v5h-25v-5h25m-40 0v5h-25v-5h25m-40 0v5h-25v-5h25m-40 0v5h-25v-5h25m-40 0v5h-25v-5h25m-40 0v5h-25v-5h25m-40 0v5h-25v-5h25m-40 0v5h-25v-5h25m-40 0v5h-25v-5h25m-40 0v5h-25v-5h25m-40 0v5h-25v-5h25m-40 0v5h-25v-5h25m-40 0v5h-25v-5h25m-40 0v5h-25v-5h25m-40 0v5h-25v-5h25m-40 0v5h-25v-5h25m-40 0v5h-25v-5h25m-40 0v5h-25v-5h25m-40 0v5h-25v-5h25m-40 0v5h-25v-5h25m-40 0v5h-25v-5h25m-40 0v5h-25v-5h25m-40 0v5h-25v-5h25m-40 0v5h-25v-5h25m-40 0v5h-22v-5h22M1124 1v5h-25V1h25m-40 0v5h-25V1h25m-40 0v5h-25V1h25m-40 0v5h-25V1h25m-40 0v5h-25V1h25m-40 0v5h-25V1h25m-40 0v5h-25V1h25m-40 0v5h-25V1h25m-40 0v5h-25V1h25m-40 0v5h-25V1h25m-40 0v5h-25V1h25m-40 0v5h-25V1h25m-40 0v5h-25V1h25m-40 0v5h-25V1h25m-40 0v5h-25V1h25m-40 0v5h-25V1h25m-40 0v5h-25V1h25m-40 0v5h-25V1h25m-40 0v5h-25V1h25m-40 0v5h-25V1h25m-40 0v5h-25V1h25m-40 0v5h-25V1h25m-40 0v5h-25V1h25m-40 0v5h-25V1h25m-40 0v5h-25V1h25m-40 0v5h-22V1h22M84 22h5v25h-5V22m0 40h5v25h-5V62m0 40h5v25h-5v-25m0 40h5v25h-5v-25m0 40h5v23h-5v-23M1143 22h5v25h-5V22m0 40h5v25h-5V62m0 40h5v25h-5v-25m0 40h5v25h-5v-25m0 40h5v23h-5v-23" fill="#E3E3E3"/><path fill="#D3D3D3" d="M84 214h11v11H84zM84 1h11v11H84z"/><path fill="#E2E2E2" d="M1137 1h11v11h-11z"/><path fill="#D3D3D3" d="M1137 214h11v11h-11zM444 90h344v10H444zM466 110h300v10H466zM466 150h300v10H466zM466 170h300v10H466zM476 190h280v10H476zM454 130h324v10H454z"/><rect width="70" height="68" rx="2" fill="#D3D3D3"/><rect y="78" width="70" height="68" rx="2" fill="#D3D3D3"/><rect y="156" width="70" height="68" rx="2" fill="#D3D3D3"/><path d="M22.26 50.81h13.33c4.03 0 7.22-.9 9.55-2.69 2.34-1.78 3.51-4.23 3.51-7.34 0-2.1-.48-3.8-1.43-5.11-.95-1.32-2.49-2.25-4.62-2.82v-.23c1.61-.39 2.91-1.27 3.89-2.62.99-1.36 1.48-3 1.48-4.93 0-2.92-1.13-5.07-3.39-6.45-2.26-1.39-5.71-2.08-10.37-2.08H22.26v34.27zm9.26-27.26h2.6c2.9 0 4.36.96 4.36 2.88 0 1.08-.37 1.89-1.09 2.44-.73.55-1.76.82-3.09.82h-2.78v-6.14zm3.07 12.91c1.46 0 2.59.31 3.36.92.77.61 1.16 1.48 1.16 2.62 0 2.44-1.45 3.66-4.34 3.66h-3.25v-7.2h3.07zM42.93 121.14h-5.24l3.64-20.65h5.24l1-5.67H28.84l-1 5.67h5.24l-3.64 20.65H24.2l-1 5.67h18.73l1-5.67zM18.55 209.17v-1.99h30.24v1.99H18.55zm21.33-9.24c-1.78.85-3.89 1.27-6.33 1.27-3.67 0-6.52-.94-8.55-2.82-2.03-1.89-3.05-4.46-3.05-7.73v-18.4h6.04v17.48c0 2.2.44 3.82 1.33 4.85.88 1.03 2.35 1.54 4.39 1.54 1.98 0 3.42-.52 4.31-1.55.89-1.04 1.34-2.66 1.34-4.88v-17.44h6.03v18.48c0 2.11-.47 3.96-1.42 5.55-.94 1.59-2.3 2.8-4.09 3.65z" fill="#FFF"/></svg>
