<svg xmlns="http://www.w3.org/2000/svg" viewBox="0 0 256 152"><path d="M252 148V4H4v144h248m4 4H0V0h256v152z" fill="#DBF1F9"/><path fill="#DBF1F9" d="M14 82h228v5H14z"/><path fill="#F99F6F" d="M14 92h45v7H14zM64 92h45v7H64zM114 92h45v7h-45zM197 92h45v7h-45z"/><path d="M198.5 68.24v8.22h-5.73v-8.05l-6.93-13.01h6.19l3.6 7.81 3.63-7.81h6.17l-6.93 12.84zm-12.3 8.22h-6.46l-4.46-7.66h-1.44v7.66h-5.7V55.4h6.91c5.72 0 8.58 2.08 8.58 6.23 0 2.44-1.19 4.32-3.57 5.66l6.14 9.17zm-11.24-16.75h-1.12v4.81h1.06c1.99 0 2.98-.88 2.98-2.63 0-1.45-.97-2.18-2.92-2.18zM154.1 76.75c-3.31 0-5.84-.92-7.6-2.78-1.76-1.85-2.65-4.55-2.65-8.09 0-3.51.88-6.19 2.63-8.04 1.76-1.84 4.3-2.77 7.65-2.77 3.35 0 5.89.92 7.62 2.75 1.73 1.84 2.59 4.53 2.59 8.08s-.87 6.24-2.61 8.09c-1.74 1.84-4.28 2.76-7.63 2.76zm3.19-15.51c-.71-1-1.76-1.5-3.16-1.5-2.86 0-4.28 2.05-4.28 6.16 0 4.08 1.41 6.11 4.25 6.11 1.44 0 2.51-.49 3.2-1.48.7-.99 1.05-2.53 1.05-4.63s-.35-3.65-1.06-4.66zM132.2 76.75c-3.25 0-5.76-.94-7.53-2.82-1.77-1.88-2.66-4.57-2.66-8.05 0-3.4.97-6.05 2.91-7.94 1.94-1.89 4.66-2.84 8.16-2.84 1.32 0 2.57.12 3.75.37 1.18.25 2.2.57 3.08.96l-1.8 4.46c-1.52-.75-3.19-1.12-5-1.12-1.66 0-2.95.54-3.86 1.62-.9 1.08-1.36 2.62-1.36 4.63 0 1.97.41 3.47 1.23 4.5.83 1.03 2.01 1.55 3.56 1.55.84 0 1.62-.08 2.33-.24v-3.3h-3.76v-4.4h9.09v11.36c-2.47.84-5.18 1.26-8.14 1.26zM106.6 55.4h12.5v4.57h-6.81v3.31h6.31v4.57h-6.31v3.98h6.81v4.63h-12.5V55.4zm-8.14 21.06h-5.69v-16.4h-5.14V55.4h15.96v4.66h-5.13v16.4zm-18.83-3.94h-6.84l-1.07 3.94h-6.25l6.87-21.14h7.59l6.96 21.14h-6.22l-1.04-3.94zm-2.09-8.13c-.21-.77-.47-1.76-.77-2.98-.3-1.22-.5-2.09-.6-2.62-.08.49-.25 1.29-.51 2.42-.25 1.12-.82 3.34-1.69 6.64h4.48l-.91-3.46zm-17.06-4.25c-.77-.25-1.61-.37-2.5-.37-1.36 0-2.41.55-3.17 1.66-.76 1.11-1.14 2.64-1.14 4.59 0 4.05 1.54 6.08 4.62 6.08.93 0 1.84-.13 2.71-.39.88-.26 1.75-.57 2.64-.94v4.82c-1.76.77-3.75 1.16-5.97 1.16-3.18 0-5.61-.92-7.31-2.76-1.69-1.85-2.54-4.51-2.54-8 0-2.18.41-4.1 1.23-5.75.82-1.65 2-2.92 3.55-3.81 1.54-.89 3.35-1.33 5.43-1.33 2.28 0 4.46.49 6.53 1.48l-1.74 4.48c-.78-.36-1.56-.67-2.34-.92z" fill="#DBF1F9"/></svg>