<svg xmlns="http://www.w3.org/2000/svg" viewBox="0 0 256 152"><path d="M83 148V4H4v144h79m4 4H0V0h87v152z" fill="#DBF1F9"/><path fill="#F99E6E" d="M15 120h57v17H15z"/><path fill="#DBF1F9" d="M15 15h57v66H15zM15 86h57v5H15zM15 96h45v5H15zM15 106h57v5H15zM252 74V4h-80v70h80m4 4h-88V0h88v78z"/><path fill="#DBF1F9" d="M183 15h58v48h-58zM168 74V4H87v70h81m4 4H83V0h89v78z"/><path fill="#DBF1F9" d="M98 15h59v48H98zM252 148V78h-80v70h80m4 4h-88V74h88v78z"/><path fill="#DBF1F9" d="M183 89h58v48h-58zM168 148V78H87v70h81m4 4H83V74h89v78z"/><path fill="#DBF1F9" d="M98 89h59v48H98z"/></svg>