<svg xmlns="http://www.w3.org/2000/svg" viewBox="0 0 1147 224"><path fill="#FFF" d="M0 0h1147v224H0z"/><path d="M1123 219v5h-25v-5h25m-40 0v5h-25v-5h25m-40 0v5h-25v-5h25m-40 0v5h-25v-5h25m-40 0v5h-25v-5h25m-40 0v5h-25v-5h25m-40 0v5h-25v-5h25m-40 0v5h-25v-5h25m-40 0v5h-25v-5h25m-40 0v5h-25v-5h25m-40 0v5h-25v-5h25m-40 0v5h-25v-5h25m-40 0v5h-25v-5h25m-40 0v5h-25v-5h25m-40 0v5h-25v-5h25m-40 0v5h-25v-5h25m-40 0v5h-25v-5h25m-40 0v5h-25v-5h25m-40 0v5h-25v-5h25m-40 0v5h-25v-5h25m-40 0v5h-25v-5h25m-40 0v5h-25v-5h25m-40 0v5h-25v-5h25m-40 0v5h-25v-5h25m-40 0v5h-25v-5h25m-40 0v5H98v-5h25m-40 0v5H58v-5h25m-40 0v5H18v-5h25M1123 0v5h-25V0h25m-40 0v5h-25V0h25m-40 0v5h-25V0h25m-40 0v5h-25V0h25m-40 0v5h-25V0h25m-40 0v5h-25V0h25m-40 0v5h-25V0h25m-40 0v5h-25V0h25m-40 0v5h-25V0h25m-40 0v5h-25V0h25m-40 0v5h-25V0h25m-40 0v5h-25V0h25m-40 0v5h-25V0h25m-40 0v5h-25V0h25m-40 0v5h-25V0h25m-40 0v5h-25V0h25m-40 0v5h-25V0h25m-40 0v5h-25V0h25m-40 0v5h-25V0h25m-40 0v5h-25V0h25m-40 0v5h-25V0h25m-40 0v5h-25V0h25m-40 0v5h-25V0h25m-40 0v5h-25V0h25m-40 0v5h-25V0h25m-40 0v5H98V0h25M83 0v5H58V0h25M43 0v5H18V0h25M0 21h5v25H0V21m0 40h5v25H0V61m0 40h5v25H0v-25m0 40h5v25H0v-25m0 40h5v23H0v-23M1142 21h5v25h-5V21m0 40h5v25h-5V61m0 40h5v25h-5v-25m0 40h5v25h-5v-25m0 40h5v23h-5v-23" fill="#E3E3E3"/><path fill="#D3D3D3" d="M0 213h11v11H0zM0 0h11v11H0z"/><path fill="#E2E2E2" d="M1136 0h11v11h-11z"/><path fill="#D3D3D3" d="M1136 213h11v11h-11zM402 89h344v10H402zM424 109h300v10H424zM424 149h300v10H424zM424 169h300v10H424zM434 189h280v10H434zM412 129h324v10H412z"/></svg>
