<?xml version="1.0" encoding="utf-8"?>
<svg xmlns="http://www.w3.org/2000/svg"
	xmlns:xlink="http://www.w3.org/1999/xlink"
	width="256px" height="152px" viewBox="0 0 256 152">
<path fillRule="evenodd" d="M 252 148C 252 148 252 4 252 4 252 4 4 4 4 4 4 4 4 148 4 148 4 148 252 148 252 148M 256 152C 256 152-0 152-0 152-0 152-0 0-0 0-0 0 256 0 256 0 256 0 256 152 256 152 256 152 256 152 256 152Z" fill="rgb(219,241,249)"/><rect x="14" y="85" width="228" height="5" fill="rgb(219,241,249)"/><rect x="14" y="95" width="45" height="7" fill="rgb(249,159,111)"/><rect x="64" y="95" width="45" height="7" fill="rgb(249,159,111)"/><rect x="114" y="95" width="45" height="7" fill="rgb(249,159,111)"/><rect x="197" y="95" width="45" height="7" fill="rgb(249,159,111)"/><path fillRule="evenodd" d="M 162.06 70.47C 162.11 71.58 162.51 72.45 163.28 73.09 164.05 73.72 165.1 74.04 166.42 74.04 167.63 74.04 168.74 73.92 169.75 73.69 170.76 73.46 171.86 73.07 173.05 72.52 173.05 72.52 173.05 77.46 173.05 77.46 171.97 78.01 170.86 78.39 169.71 78.61 168.56 78.82 167.19 78.92 165.59 78.92 162.28 78.92 159.7 78.04 157.87 76.28 156.03 74.51 155.12 72 155.12 68.74 155.12 65.38 155.97 62.8 157.67 61 159.37 59.2 161.79 58.3 164.94 58.3 167.94 58.3 170.26 59.08 171.9 60.65 173.53 62.21 174.35 64.47 174.35 67.41 174.35 67.41 174.35 70.47 174.35 70.47 174.35 70.47 162.06 70.47 162.06 70.47ZM 167.29 63.84C 166.77 63.27 166.07 62.98 165.19 62.98 164.38 62.98 163.7 63.23 163.16 63.74 162.61 64.25 162.29 65.05 162.2 66.14 162.2 66.14 168.11 66.14 168.11 66.14 168.08 65.18 167.81 64.41 167.29 63.84ZM 144.43 67.71C 144.43 66.38 144.24 65.38 143.86 64.71 143.48 64.04 142.87 63.7 142.02 63.7 140.86 63.7 140.02 64.16 139.51 65.09 138.99 66.01 138.73 67.6 138.73 69.85 138.73 69.85 138.73 78.57 138.73 78.57 138.73 78.57 131.86 78.57 131.86 78.57 131.86 78.57 131.86 58.65 131.86 58.65 131.86 58.65 137.05 58.65 137.05 58.65 137.05 58.65 137.91 61.12 137.91 61.12 137.91 61.12 138.31 61.12 138.31 61.12 138.9 60.18 139.71 59.47 140.75 59.01 141.78 58.54 142.98 58.3 144.32 58.3 146.53 58.3 148.24 58.94 149.47 60.22 150.69 61.5 151.3 63.29 151.3 65.62 151.3 65.62 151.3 78.57 151.3 78.57 151.3 78.57 144.43 78.57 144.43 78.57 144.43 78.57 144.43 67.71 144.43 67.71ZM 123.65 56.72C 121.23 56.72 120.01 55.71 120.01 53.7 120.01 52.67 120.3 51.9 120.88 51.39 121.45 50.89 122.37 50.64 123.65 50.64 124.93 50.64 125.86 50.9 126.45 51.41 127.03 51.93 127.33 52.69 127.33 53.7 127.33 55.71 126.1 56.72 123.65 56.72ZM 108.52 51.22C 108.52 51.22 115.39 51.22 115.39 51.22 115.39 51.22 115.39 78.57 115.39 78.57 115.39 78.57 108.52 78.57 108.52 78.57 108.52 78.57 108.52 51.22 108.52 51.22ZM 97.11 76.06C 97.11 76.06 96.85 76.06 96.85 76.06 95.66 77.97 93.9 78.92 91.55 78.92 90.14 78.92 88.9 78.52 87.84 77.71 86.78 76.9 85.96 75.71 85.38 74.14 84.8 72.57 84.51 70.74 84.51 68.64 84.51 65.4 85.16 62.87 86.46 61.04 87.76 59.22 89.54 58.3 91.82 58.3 92.93 58.3 93.91 58.53 94.75 58.97 95.58 59.42 96.35 60.17 97.04 61.22 97.04 61.22 97.18 61.22 97.18 61.22 96.96 59.66 96.85 58.1 96.85 56.54 96.85 56.54 96.85 51.22 96.85 51.22 96.85 51.22 103.77 51.22 103.77 51.22 103.77 51.22 103.77 78.57 103.77 78.57 103.77 78.57 98.59 78.57 98.59 78.57 98.59 78.57 97.11 76.06 97.11 76.06ZM 97.43 68.71C 97.43 66.95 97.17 65.7 96.67 64.96 96.17 64.21 95.37 63.84 94.3 63.84 93.39 63.84 92.69 64.26 92.2 65.11 91.7 65.96 91.45 67.17 91.45 68.74 91.45 70.29 91.7 71.47 92.21 72.28 92.71 73.09 93.43 73.49 94.37 73.49 95.47 73.49 96.25 73.14 96.7 72.45 97.15 71.76 97.39 70.7 97.43 69.25 97.43 69.25 97.43 68.71 97.43 68.71ZM 74.61 75.93C 74.61 75.93 74.47 75.93 74.47 75.93 73.54 77.08 72.6 77.87 71.64 78.29 70.68 78.71 69.44 78.92 67.91 78.92 66.04 78.92 64.56 78.36 63.48 77.23 62.4 76.11 61.87 74.53 61.87 72.49 61.87 70.37 62.6 68.79 64.08 67.75 65.56 66.71 67.7 66.13 70.5 66 70.5 66 73.82 65.9 73.82 65.9 73.82 65.9 73.82 65.62 73.82 65.62 73.82 63.97 73.01 63.15 71.39 63.15 69.94 63.15 68.09 63.65 65.86 64.63 65.86 64.63 63.87 60.1 63.87 60.1 66.19 58.9 69.12 58.3 72.66 58.3 75.21 58.3 77.19 58.94 78.59 60.2 79.99 61.47 80.69 63.24 80.69 65.51 80.69 65.51 80.69 78.57 80.69 78.57 80.69 78.57 75.93 78.57 75.93 78.57 75.93 78.57 74.61 75.93 74.61 75.93ZM 73.85 69.68C 73.85 69.68 72.27 69.75 72.27 69.75 70.01 69.83 68.88 70.66 68.88 72.24 68.88 73.46 69.53 74.07 70.83 74.07 71.66 74.07 72.37 73.81 72.97 73.28 73.56 72.75 73.85 72.07 73.85 71.22 73.85 71.22 73.85 69.68 73.85 69.68ZM 47.99 73.09C 48.75 73.72 49.8 74.04 51.13 74.04 52.33 74.04 53.44 73.92 54.46 73.69 55.47 73.46 56.57 73.07 57.75 72.52 57.75 72.52 57.75 77.46 57.75 77.46 56.67 78.01 55.56 78.39 54.41 78.61 53.26 78.82 51.89 78.92 50.3 78.92 46.98 78.92 44.41 78.04 42.57 76.28 40.74 74.51 39.82 72 39.82 68.74 39.82 65.38 40.67 62.8 42.37 61 44.07 59.2 46.5 58.3 49.65 58.3 52.65 58.3 54.97 59.08 56.6 60.65 58.24 62.21 59.05 64.47 59.05 67.41 59.05 67.41 59.05 70.47 59.05 70.47 59.05 70.47 46.77 70.47 46.77 70.47 46.81 71.58 47.22 72.45 47.99 73.09ZM 52.81 66.14C 52.79 65.18 52.52 64.41 52 63.84 51.47 63.27 50.77 62.98 49.89 62.98 49.09 62.98 48.41 63.23 47.86 63.74 47.32 64.25 47 65.05 46.91 66.14 46.91 66.14 52.81 66.14 52.81 66.14ZM 28.55 68.09C 28.55 68.09 20.49 68.09 20.49 68.09 20.49 68.09 20.49 78.57 20.49 78.57 20.49 78.57 13.51 78.57 13.51 78.57 13.51 78.57 13.51 52.87 13.51 52.87 13.51 52.87 20.49 52.87 20.49 52.87 20.49 52.87 20.49 62.4 20.49 62.4 20.49 62.4 28.55 62.4 28.55 62.4 28.55 62.4 28.55 52.87 28.55 52.87 28.55 52.87 35.53 52.87 35.53 52.87 35.53 52.87 35.53 78.57 35.53 78.57 35.53 78.57 28.55 78.57 28.55 78.57 28.55 78.57 28.55 68.09 28.55 68.09ZM 127.06 78.57C 127.06 78.57 120.19 78.57 120.19 78.57 120.19 78.57 120.19 58.65 120.19 58.65 120.19 58.65 127.06 58.65 127.06 58.65 127.06 58.65 127.06 78.57 127.06 78.57Z" fill="rgb(219,241,249)"/></svg>