<svg xmlns="http://www.w3.org/2000/svg" viewBox="0 0 19 16"><path d="M18.49 15.03c-.09.21-.25.37-.45.46-.41.32-.93.51-1.48.51H2.44C1.1 16 0 14.9 0 13.54V2.12C0 .95.95 0 2.11 0h14.45C17.9 0 19 1.1 19 2.45v11.09c0 .57-.19 1.08-.51 1.49zM17 3.59C17 2.71 16.3 2 15.43 2H3.24C2.56 2 2 2.57 2 3.26v9.3c0 .63.37 1.18.9 1.43l4.45-3.98c.29-.25.72-.24.99.04l1.67 1.69 4-3.58c.4-.36 1.01-.34 1.39.05L17 9.83V3.59zM5.5 7.01c-.82 0-1.49-.68-1.49-1.51 0-.84.67-1.51 1.49-1.51s1.49.67 1.49 1.51c0 .83-.67 1.51-1.49 1.51z"/></svg>
