<?xml version="1.0" encoding="utf-8"?>
<svg xmlns="http://www.w3.org/2000/svg"
	xmlns:xlink="http://www.w3.org/1999/xlink"
	width="257px" height="152px" viewBox="0 0 257 152">
<path fillRule="evenodd" d="M 121 148C 121 148 121 4 121 4 121 4 4 4 4 4 4 4 4 148 4 148 4 148 121 148 121 148M 125 152C 125 152 0 152 0 152 0 152 0 0 0 0 0 0 125 0 125 0 125 0 125 152 125 152 125 152 125 152 125 152Z" fill="rgb(219,241,249)"/><rect x="15" y="120" width="95" height="17" fill="rgb(249,158,110)"/><rect x="15" y="15" width="95" height="70" fill="rgb(219,241,249)"/><rect x="15" y="95" width="95" height="5" fill="rgb(219,241,249)"/><rect x="15" y="105" width="73" height="5" fill="rgb(219,241,249)"/><path fillRule="evenodd" d="M 253 148C 253 148 253 4 253 4 253 4 136 4 136 4 136 4 136 148 136 148 136 148 253 148 253 148M 257 152C 257 152 132 152 132 152 132 152 132 0 132 0 132 0 257 0 257 0 257 0 257 152 257 152 257 152 257 152 257 152Z" fill="rgb(219,241,249)"/><rect x="147" y="120" width="95" height="17" fill="rgb(249,158,110)"/><rect x="147" y="15" width="95" height="70" fill="rgb(219,241,249)"/><rect x="147" y="95" width="95" height="5" fill="rgb(219,241,249)"/><rect x="147" y="105" width="73" height="5" fill="rgb(219,241,249)"/></svg>