<?xml version="1.0" encoding="utf-8"?>
<svg xmlns="http://www.w3.org/2000/svg" xmlns:xlink="http://www.w3.org/1999/xlink" viewBox="0 0 18 21">
<path fillRule="evenodd" d="M 16.71 7.4C 16.71 7.4 10.6 1.29 10.6 1.29 10.6 1.29 11.9-0 11.9-0 11.9-0 18.01 6.1 18.01 6.1 18.01 6.1 16.71 7.4 16.71 7.4ZM 7.07 17.03C 7.07 17.03-0 18.01-0 18.01-0 18.01 0.96 10.92 0.96 10.92 0.96 10.92 10.03 1.87 10.03 1.87 10.03 1.87 16.14 7.97 16.14 7.97 16.14 7.97 7.07 17.03 7.07 17.03ZM 10.89 5.55C 10.89 5.55 10.03 4.73 10.03 4.73 10.03 4.73 2.78 11.97 2.78 11.97 2.78 11.97 2.38 14.04 2.38 14.04 2.38 14.04 3.98 15.62 3.98 15.62 3.98 15.62 6.01 15.22 6.01 15.22 6.01 15.22 13.27 7.97 13.27 7.97 13.27 7.97 12.44 7.11 12.44 7.11 12.44 7.11 7.68 11.9 7.68 11.9 7.68 11.9 6.12 10.35 6.12 10.35 6.12 10.35 10.89 5.55 10.89 5.55ZM 16.94 21C 16.94 21-0.01 21-0.01 21-0.01 21-0.01 19.01-0.01 19.01-0.01 19.01 16.94 19.01 16.94 19.01 16.94 19.01 16.94 21 16.94 21Z"/></svg>
