<svg xmlns="http://www.w3.org/2000/svg" width="70" height="98" viewBox="0 0 70 98">
  <path d="M66 94V4H4v90h62m4 4H0V0h70v98z"/>
  <path d="M8 8h54v39H8z" fill="currentColor"/>
  <circle cx="22.5" cy="58.5" r="4.5" fill="currentColor"/>
  <path d="M35.5 61c1.4 0 2.5-1 2.5-2.5 0-1.4-1-2.5-2.5-2.5-1.4 0-2.5 1-2.5 2.5 0 1.4 1 2.5 2.5 2.5m0 2C33 63 31 61 31 58.5s2-4.5 4.5-4.5 4.5 2 4.5 4.5-2 4.5-4.5 4.5zM48.5 61c1.4 0 2.5-1 2.5-2.5 0-1.4-1-2.5-2.5-2.5-1.4 0-2.5 1-2.5 2.5 0 1.4 1 2.5 2.5 2.5m0 2C46 63 44 61 44 58.5s2-4.5 4.5-4.5 4.5 2 4.5 4.5-2 4.5-4.5 4.5z" fill="currentColor"/>
</svg>
