<svg xmlns="http://www.w3.org/2000/svg" viewBox="0 0 173 102"><defs><style>.cls-1 { fill: none; stroke: currentColor; stroke-width: 4px; } .cls-2 { fill: currentColor; }</style></defs><path class="cls-1" d="M2 2h169v98H2z"/><path class="cls-2" d="M89 33h15v16H89z"/><path class="cls-2" d="M68 33h15v16H68z"/><path class="cls-2" d="M47 33h15v16H47z"/><path class="cls-2" d="M89 54h15v16H89z"/><path class="cls-2" d="M68 54h15v16H68z"/><path class="cls-2" d="M131 33h15v16h-15z"/><path class="cls-2" d="M110 33h15v16h-15z"/><path class="cls-2" d="M131 54h15v16h-15z"/><path class="cls-2" d="M110 54h15v16h-15z"/><path class="cls-2" d="M47 54h15v16H47z"/><path class="cls-2" d="M26 33h15v16H26z"/><path class="cls-2" d="M26 54h15v16H26z"/></svg>
