<svg xmlns="http://www.w3.org/2000/svg" viewBox="0 0 173 102"><defs><style>.cls-1 { fill: none; stroke: currentColor; stroke-width: 4px; } .cls-2 { fill: currentColor; }</style></defs><path class="cls-1" d="M2 2h169v98H2z"/><path class="cls-2" d="M109 22h15v16h-15z"/><path class="cls-2" d="M89 22h15v16H89z"/><path class="cls-2" d="M69 22h15v16H69z"/><path class="cls-2" d="M109 43h15v16h-15z"/><path class="cls-2" d="M89 43h15v16H89z"/><path class="cls-2" d="M69 43h15v16H69z"/><path class="cls-2" d="M49 22h15v16H49z"/><path class="cls-2" d="M49 43h15v16H49z"/><path class="cls-2" d="M109 64h15v16h-15z"/><path class="cls-2" d="M89 64h15v16H89z"/><path class="cls-2" d="M69 64h15v16H69z"/><path class="cls-2" d="M49 64h15v16H49z"/></svg>
