<svg xmlns="http://www.w3.org/2000/svg" viewBox="0 0 173 102"><defs><style>.cls-1 { fill: none; stroke: currentColor; stroke-width: 4px; } .cls-2 { fill: currentColor; }</style></defs><path class="cls-1" d="M2 2h169v98H2z"/><path class="cls-2" d="M89 33h15v16H89z"/><path class="cls-2" d="M89 54h15v16H89z"/><path class="cls-2" d="M109 33h15v16h-15z"/><path class="cls-2" d="M109 54h15v16h-15z"/><path class="cls-2" d="M49 33h15v16H49z"/><path class="cls-2" d="M49 54h15v16H49z"/><path class="cls-2" d="M69 33h15v16H69z"/><path class="cls-2" d="M89 12h15v16H89z"/><path class="cls-2" d="M109 12h15v16h-15z"/><path class="cls-2" d="M49 12h15v16H49z"/><path class="cls-2" d="M69 12h15v16H69z"/><path class="cls-2" d="M69 54h15v16H69z"/><path class="cls-2" d="M89 75h15v16H89z"/><path class="cls-2" d="M109 75h15v16h-15z"/><path class="cls-2" d="M49 75h15v16H49z"/><path class="cls-2" d="M69 75h15v16H69z"/></svg>
