<svg xmlns="http://www.w3.org/2000/svg" viewBox="0 0 169 98">
    <path d="M165 94V4H4v90h161m4 4H0V0h169v98z" fill="#D3D3D3"/>
    <path fill="currentColor" d="M25 24h119v50H25z"/>
    <path fill="#E2E2E2" d="M25 4h57v15H25zM87 4h57v15H87z"/>
    <path d="M43 50h-9.63l3.34 3.35c.38.38.38.99 0 1.36-.37.38-.98.38-1.36 0l-4.88-4.88c-.06-.03-.13-.06-.18-.12-.19-.19-.29-.44-.29-.69V49c0-.01.01-.01.01-.02-.01-.25.09-.5.28-.69.05-.06.12-.09.18-.13l4.88-4.87c.38-.38.99-.38 1.36 0 .38.37.38.98 0 1.36L33.37 48H43c.55 0 1 .45 1 1s-.45 1-1 1zM139 49v.02c0 .25-.1.5-.29.69-.05.06-.12.09-.18.12l-4.88 4.88c-.38.38-.99.38-1.36 0-.38-.37-.38-.98 0-1.36l3.34-3.35H126c-.55 0-1-.45-1-1s.45-1 1-1h9.63l-3.34-3.35c-.38-.38-.38-.99 0-1.36.37-.38.98-.38 1.36 0l4.88 4.87c.06.04.13.07.18.13.19.19.29.44.28.69 0 .01.01.01.01.02z" fill="#FFF"/><circle cx="71.5" cy="84.5" r="4.5" fill="#D3D3D3"/>
    <path d="M84.5 87c1.38 0 2.5-1.12 2.5-2.5S85.88 82 84.5 82 82 83.12 82 84.5s1.12 2.5 2.5 2.5m0 2c-2.49 0-4.5-2.01-4.5-4.5s2.01-4.5 4.5-4.5 4.5 2.01 4.5 4.5-2.01 4.5-4.5 4.5zM97.5 87c1.38 0 2.5-1.12 2.5-2.5S98.88 82 97.5 82 95 83.12 95 84.5s1.12 2.5 2.5 2.5m0 2c-2.49 0-4.5-2.01-4.5-4.5s2.01-4.5 4.5-4.5 4.5 2.01 4.5 4.5-2.01 4.5-4.5 4.5z" fill="#D3D3D3"/>
</svg>
