<svg xmlns="http://www.w3.org/2000/svg" width="169" height="98" viewBox="0 0 169 98">
  <path d="M165 94V4H4v90h161m4 4H0V0h169v98z"/>
  <path fill="currentColor" d="M25 24h119v50H25zM4 24h19v50H4zM146 24h19v50h-19z"/>
  <path d="M25 4h57v15H25zM87 4h57v15H87z"/>
  <path fill="#FFF" d="M43 50h-9.63l3.34 3.35c.4.38.4 1 0 1.36-.36.4-.97.4-1.35 0l-4.88-4.87c-.06-.03-.13-.06-.18-.12-.2-.18-.3-.43-.3-.68V49v-.02c0-.25.1-.5.3-.7.04-.05.1-.08.17-.12l4.88-4.87c.38-.4 1-.4 1.36 0 .4.36.4.97 0 1.35L33.38 48H43c.55 0 1 .45 1 1s-.45 1-1 1zM139 49v.02c0 .25-.1.5-.3.7-.04.05-.1.08-.17.1l-4.88 4.9c-.38.37-1 .37-1.36 0-.4-.38-.4-1 0-1.37l3.33-3.35H126c-.55 0-1-.45-1-1s.45-1 1-1h9.63l-3.34-3.35c-.4-.38-.4-1 0-1.36.36-.4.97-.4 1.35 0l4.88 4.86c.06.04.13.07.18.13.2.18.3.43.3.68V49z"/>
  <circle cx="71.5" cy="84.5" r="4.5"/>
  <path d="M84.5 87c1.38 0 2.5-1.12 2.5-2.5S85.88 82 84.5 82 82 83.12 82 84.5s1.12 2.5 2.5 2.5m0 2C82 89 80 87 80 84.5s2-4.5 4.5-4.5 4.5 2 4.5 4.5-2 4.5-4.5 4.5zM97.5 87c1.38 0 2.5-1.12 2.5-2.5S98.88 82 97.5 82 95 83.12 95 84.5s1.12 2.5 2.5 2.5m0 2C95 89 93 87 93 84.5s2-4.5 4.5-4.5 4.5 2 4.5 4.5-2 4.5-4.5 4.5z"/>
</svg>
