<?xml version="1.0" encoding="utf-8"?>
<svg xmlns="http://www.w3.org/2000/svg"
	xmlns:xlink="http://www.w3.org/1999/xlink"
	width="51px" height="45px" viewBox="0 0 51 45">
<path fillRule="evenodd" d="M 46.88 4.18C 44.21 1.5 40.67 0.03 36.9 0.03 33.13 0.03 29.58 1.51 26.91 4.19 26.91 4.19 25.52 5.59 25.52 5.59 25.52 5.59 24.1 4.17 24.1 4.17 21.43 1.49 17.87-0 14.1-0 10.34-0 6.79 1.48 4.13 4.15 1.46 6.83-0.01 10.38 0 14.17 0 17.96 1.48 21.51 4.15 24.19 4.15 24.19 24.46 44.57 24.46 44.57 24.74 44.85 25.12 45 25.48 45 25.85 45 26.23 44.86 26.51 44.58 26.51 44.58 46.86 24.23 46.86 24.23 49.53 21.55 51 17.99 51 14.2 51.01 10.42 49.55 6.86 46.88 4.18ZM 44.8 22.16C 44.8 22.16 25.48 41.47 25.48 41.47 25.48 41.47 6.21 22.13 6.21 22.13 4.09 20 2.92 17.18 2.92 14.17 2.92 11.17 4.08 8.34 6.2 6.23 8.3 4.11 11.12 2.94 14.1 2.94 17.09 2.94 19.92 4.11 22.03 6.24 22.03 6.24 24.48 8.69 24.48 8.69 25.05 9.27 25.97 9.27 26.54 8.69 26.54 8.69 28.97 6.26 28.97 6.26 31.08 4.13 33.91 2.96 36.89 2.96 39.87 2.96 42.69 4.13 44.8 6.25 46.92 8.38 48.08 11.2 48.08 14.2 48.09 17.21 46.92 20.03 44.8 22.16Z" /></svg>