<?xml version="1.0" encoding="utf-8"?>
<svg xmlns="http://www.w3.org/2000/svg"
	xmlns:xlink="http://www.w3.org/1999/xlink"
	width="45px" height="48px" viewBox="0 0 45 48">
<path fillRule="evenodd" d="M 13.3 31.43C 13.3 31.43 39.09 31.43 39.09 31.43 42.02 31.43 44.4 29.04 44.4 26.11 44.4 26.11 44.4 15.26 44.4 15.26 44.4 15.25 44.4 15.23 44.4 15.22 44.4 15.19 44.4 15.17 44.4 15.14 44.4 15.12 44.4 15.1 44.39 15.08 44.39 15.06 44.38 15.03 44.38 15.01 44.38 15 44.38 14.98 44.38 14.96 44.37 14.94 44.37 14.92 44.36 14.89 44.35 14.87 44.35 14.85 44.34 14.83 44.33 14.81 44.33 14.79 44.32 14.77 44.31 14.75 44.3 14.74 44.29 14.71 44.28 14.69 44.27 14.67 44.26 14.66 44.25 14.64 44.24 14.62 44.23 14.6 44.22 14.58 44.21 14.57 44.2 14.55 44.19 14.53 44.17 14.51 44.16 14.49 44.15 14.48 44.14 14.47 44.13 14.45 44.12 14.43 44.1 14.42 44.09 14.4 44.08 14.38 44.06 14.37 44.05 14.35 44.04 14.33 44.02 14.32 44.01 14.31 43.99 14.29 43.98 14.28 43.96 14.26 43.94 14.25 43.93 14.23 43.91 14.23 43.89 14.22 43.87 14.2 43.86 14.19 43.84 14.18 43.83 14.17 43.81 14.16 43.79 14.15 43.77 14.14 43.75 14.12 43.73 14.11 43.71 14.1 43.69 14.09 43.67 14.08 43.65 14.07 43.63 14.06 43.62 14.05 43.6 14.04 43.58 14.03 43.56 14.02 43.54 14.02 43.52 14.01 43.5 14 43.47 13.99 43.45 13.99 43.43 13.99 43.41 13.98 43.4 13.98 43.37 13.97 43.36 13.97 43.33 13.97 43.32 13.97 43.31 13.97 43.29 13.97 43.29 13.97 10.6 9.45 10.6 9.45 10.6 9.45 10.6 4.89 10.6 4.89 10.6 4.84 10.6 4.79 10.59 4.75 10.59 4.74 10.59 4.73 10.58 4.72 10.58 4.69 10.57 4.66 10.57 4.63 10.56 4.6 10.56 4.58 10.55 4.55 10.55 4.53 10.54 4.52 10.54 4.5 10.53 4.47 10.52 4.45 10.51 4.42 10.51 4.41 10.5 4.39 10.5 4.38 10.49 4.35 10.48 4.33 10.47 4.3 10.46 4.29 10.46 4.27 10.45 4.26 10.44 4.24 10.43 4.22 10.41 4.21 10.4 4.19 10.39 4.18 10.38 4.16 10.37 4.14 10.36 4.13 10.35 4.11 10.34 4.09 10.32 4.07 10.31 4.05 10.3 4.04 10.29 4.03 10.28 4.02 10.26 4 10.24 3.98 10.22 3.96 10.22 3.95 10.21 3.95 10.2 3.94 10.18 3.92 10.16 3.9 10.13 3.88 10.12 3.87 10.1 3.86 10.09 3.85 10.07 3.83 10.05 3.82 10.03 3.8 10 3.78 9.97 3.76 9.96 3.75 9.95 3.74 9.94 3.74 9.93 3.73 9.89 3.71 9.84 3.69 9.8 3.68 9.8 3.68 2.71 0.69 2.71 0.69 2.05 0.41 1.29 0.72 1.01 1.38 0.73 2.05 1.04 2.81 1.7 3.09 1.7 3.09 7.99 5.75 7.99 5.75 7.99 5.75 7.99 11.64 7.99 11.64 7.99 11.64 7.99 12.57 7.99 12.57 7.99 12.57 7.99 19.73 7.99 19.73 7.99 19.73 7.99 26.13 7.99 26.13 7.99 26.13 7.99 34.22 7.99 34.22 7.99 36.91 10.01 39.15 12.62 39.48 12.15 40.27 11.87 41.2 11.87 42.18 11.87 45.07 14.23 47.42 17.11 47.42 20 47.42 22.36 45.07 22.36 42.18 22.36 41.21 22.1 40.3 21.63 39.53 21.63 39.53 33.31 39.53 33.31 39.53 32.85 40.31 32.59 41.21 32.59 42.18 32.59 45.07 34.95 47.42 37.83 47.42 40.72 47.42 43.08 45.07 43.08 42.18 43.08 39.29 40.72 36.93 37.83 36.93 37.83 36.93 13.3 36.93 13.3 36.93 11.8 36.93 10.59 35.71 10.59 34.22 10.59 34.22 10.59 30.69 10.59 30.69 11.38 31.16 12.31 31.43 13.3 31.43ZM 19.77 42.17C 19.77 43.63 18.57 44.81 17.12 44.81 15.67 44.81 14.48 43.62 14.48 42.17 14.48 40.71 15.67 39.52 17.12 39.52 18.57 39.52 19.77 40.7 19.77 42.17ZM 40.49 42.17C 40.49 43.63 39.3 44.81 37.84 44.81 36.39 44.81 35.2 43.62 35.2 42.17 35.2 40.71 36.39 39.52 37.84 39.52 39.3 39.52 40.49 40.7 40.49 42.17ZM 39.09 28.83C 39.09 28.83 13.3 28.83 13.3 28.83 11.8 28.83 10.59 27.6 10.59 26.11 10.59 26.11 10.59 19.71 10.59 19.71 10.59 19.71 10.59 12.55 10.59 12.55 10.59 12.55 10.59 12.07 10.59 12.07 10.59 12.07 41.81 16.37 41.81 16.37 41.81 16.37 41.81 26.1 41.81 26.1 41.81 27.61 40.58 28.83 39.09 28.83Z" fill="rgb(0,0,0)"/></svg>