<?xml version="1.0" encoding="utf-8"?><svg xmlns="http://www.w3.org/2000/svg" xmlns:xlink="http://www.w3.org/1999/xlink"><symbol viewBox="0 0 33 33" id="icon-fb" xmlns="http://www.w3.org/2000/svg"><circle cx="16.5" cy="16.5" r="16.5" fill="#3B5997"/><path d="M17.78 25.01v-9.3h2.72l.4-2.8h-3.12v-1.37c0-.92.47-1.74 1.75-1.74h1.48V7.12c-.28-.04-1.23-.13-2.36-.13-2.35 0-4.1 1.5-4.1 4.24v1.68H12v2.8h2.55v9.3h3.23z" fill="#FFF"/></symbol><symbol viewBox="0 0 33 33" id="icon-google" xmlns="http://www.w3.org/2000/svg"><circle cx="16.5" cy="16.5" r="16.5" fill="#ED5353"/><path d="M26 16.12h-1.87V18h-1.24v-1.88h-1.88v-1.24h1.88v-1.89h1.24v1.89H26v1.24zm-8.4-7.27c.15.09.32.23.51.41.17.18.35.41.52.68.17.25.31.55.44.9.1.34.15.75.15 1.21-.01.84-.2 1.52-.56 2.03-.18.24-.36.47-.56.68-.22.2-.45.42-.7.63-.14.15-.27.31-.39.5-.14.19-.22.41-.22.67 0 .24.08.45.22.61.13.15.25.28.36.4l.81.66c.5.41.94.85 1.31 1.35.36.5.54 1.15.56 1.96 0 1.14-.51 2.16-1.53 3.04-1.05.92-2.57 1.39-4.55 1.42-1.67-.02-2.91-.37-3.73-1.06C9.41 24.3 9 23.53 9 22.63c0-.44.13-.93.4-1.46.26-.54.74-1.01 1.42-1.42a7.51 7.51 0 0 1 2.42-.88c.84-.12 1.54-.19 2.09-.2-.17-.23-.32-.47-.45-.72-.16-.25-.24-.55-.24-.89 0-.21.03-.39.09-.53.05-.14.1-.28.15-.4-.27.03-.53.04-.77.04-1.26-.01-2.22-.41-2.89-1.18-.69-.73-1.04-1.57-1.04-2.53 0-1.16.49-2.21 1.48-3.16.67-.55 1.37-.91 2.1-1.08.72-.15 1.4-.22 2.03-.22h4.74l-1.46.85H17.6zm-3.08 10.51c-.49.07-1 .18-1.51.33l-.51.21c-.22.1-.44.24-.67.43-.22.19-.4.43-.55.71-.18.3-.27.66-.27 1.09 0 .83.38 1.51 1.14 2.05.72.54 1.7.82 2.95.83 1.11-.01 1.97-.26 2.56-.74.57-.47.86-1.07.86-1.81 0-.6-.2-1.12-.59-1.57-.42-.42-1.07-.94-1.95-1.55-.15-.02-.33-.03-.53-.03-.12-.01-.43 0-.93.05zm1.97-9.04c-.22-.45-.52-.82-.88-1.11-.38-.27-.81-.41-1.29-.43-.65.02-1.18.28-1.61.78-.36.52-.53 1.11-.51 1.75 0 .86.25 1.75.75 2.67.24.43.56.8.94 1.1.39.3.83.45 1.32.45.63-.02 1.15-.25 1.56-.67.2-.3.33-.61.39-.92.03-.32.05-.58.05-.8 0-.93-.24-1.87-.72-2.82z" fill="#FFF"/></symbol><symbol viewBox="0 0 33 33" id="icon-li" xmlns="http://www.w3.org/2000/svg"><circle cx="16.5" cy="16.5" r="16.5" fill="#007BB5"/><path d="M20.78 23v-5.6c0-1.41-.49-2.37-1.71-2.37-.94 0-1.5.65-1.75 1.27-.09.23-.11.54-.11.85V23H14s.04-9.38 0-10.36h3.21v1.43c.46-.71 1.22-1.79 3.02-1.79 2.23 0 3.77 1.5 3.77 4.72v6h-3.22zM10.6 11.21h-.02c-.96 0-1.58-.71-1.58-1.6C9 8.69 9.64 8 10.62 8c.98 0 1.58.69 1.6 1.61 0 .89-.62 1.6-1.62 1.6zM12.21 23h-3.2V12.64h3.2V23z" fill="#FFF"/></symbol></svg>