<?xml version="1.0" encoding="utf-8"?><svg xmlns="http://www.w3.org/2000/svg" xmlns:xlink="http://www.w3.org/1999/xlink"><symbol viewBox="0 0 51 45" id="icon-heart" xmlns="http://www.w3.org/2000/svg"><path d="M46.88 4.18C44.2 1.5 40.68.03 36.9.03c-3.77 0-7.32 1.48-10 4.16l-1.38 1.4-1.42-1.43C21.43 1.5 17.87 0 14.1 0c-3.76 0-7.3 1.48-9.97 4.15C1.46 6.83 0 10.38 0 14.17c0 3.8 1.48 7.34 4.15 10.02l20.3 20.37c.3.28.67.43 1.03.43.37 0 .75-.14 1.03-.42l20.36-20.35A14.09 14.09 0 0 0 51 14.2c0-3.78-1.45-7.34-4.12-10.02zM44.8 22.16l-19.32 19.3L6.2 22.14a11.31 11.31 0 0 1-3.27-7.97c0-3 1.16-5.83 3.28-7.94 2.1-2.12 4.92-3.3 7.9-3.3 3 0 5.82 1.18 7.93 3.3l2.45 2.46c.57.57 1.5.57 2.06 0l2.43-2.44c2.1-2.13 4.94-3.3 7.92-3.3 2.97 0 5.78 1.17 7.9 3.3 2.12 2.12 3.28 4.94 3.28 7.94s-1.16 5.83-3.28 7.96z"/></symbol><symbol viewBox="0 0 16.72 18.72" id="icon_crown" xmlns="http://www.w3.org/2000/svg"><path class="bcls-1" d="M2 18.72h12.72l.28-2.54H1.71L2 18.72zm9.1-12.23L8.36 0 5.62 6.49 0 4l1.48 10.09h13.76L16.72 4 11.1 6.49z"/></symbol><symbol viewBox="0 0 28 26" id="icon_star" xmlns="http://www.w3.org/2000/svg"><path d="M13.61 19.9l8.46 6.1-3.2-9.95 8.46-5.88H17.04L13.61 0l-3.43 10.17H-.11l8.46 5.88L5.15 26l8.46-6.1z"/></symbol></svg>