<?xml version="1.0" encoding="utf-8"?><svg xmlns="http://www.w3.org/2000/svg" xmlns:xlink="http://www.w3.org/1999/xlink"><symbol viewBox="0 0 169 98" id="dl_1"><path d="M165 94V4H4v90h161m4 4H0V0h169v98z"/><path d="M25 25h119v48H25z" fill="currentColor"/></symbol><symbol viewBox="0 0 169 98" id="dl_2"><path d="M165 94V4H4v90h161m4 4H0V0h169v98z"/><path d="M87 25h57v48H87zm-62 0h57v48H25z" fill="currentColor"/></symbol><symbol viewBox="0 0 169 98" id="dl_3"><path d="M165 94V4H4v90h161m4 4H0V0h169v98z"/><path d="M25 33h37v32H25zm42 0h36v32H67zm41 0h37v32h-37z" fill="currentColor"/></symbol><symbol viewBox="0 0 169 98" id="dl_4"><path d="M165 94V4H4v90h161m4 4H0V0h169v98z"/><path d="M25 35h26v28H25zm31 0h26v28H56zm31 0h26v28H87zm31 0h26v28h-26z" fill="currentColor"/></symbol><symbol viewBox="0 0 169 98" id="dl_6"><path d="M165 94V4H4v90h161m4 4H0V0h169v98z"/><path d="M24 41h15v16H24zm21 0h15v16H45zm21 0h15v16H66zm21 0h15v16H87zm21 0h15v16h-15zm21 0h15v16h-15z" fill="currentColor"/></symbol><symbol viewBox="0 0 12 14" id="icon_arrow-down"><path d="M11.71 8.65l-4.88 4.88c-.03.06-.06.13-.12.18-.19.19-.44.29-.69.29H6c-.01 0-.01-.01-.02-.01-.25.01-.5-.09-.69-.28-.06-.05-.09-.12-.13-.18L.29 8.65a.954.954 0 0 1 0-1.36c.37-.38.98-.38 1.36 0L5 10.63V1c0-.55.45-1 1-1s1 .45 1 1v9.63l3.35-3.34c.38-.38.99-.38 1.36 0 .38.37.38.98 0 1.36z"/></symbol><symbol viewBox="0 0 12 14" id="icon_arrow-up"><path d="M11.71 6.71c-.37.38-.98.38-1.36 0L7 3.37V13c0 .55-.45 1-1 1s-1-.45-1-1V3.37L1.65 6.71c-.38.38-.99.38-1.36 0a.954.954 0 0 1 0-1.36L5.17.47c.03-.06.06-.13.12-.18.19-.19.44-.29.69-.29H6c.01 0 .01.01.02.01.25-.01.5.09.69.28.06.05.09.12.13.18l4.87 4.88c.38.38.38.99 0 1.36z"/></symbol><symbol viewBox="0 0 302 101" id="icon_component-brand-carousel"><path d="M302.01 25.18l-9.83 9.83-3.19-3.19L295.8 25l-6.81-6.82 3.19-3.19 9.83 9.83-.18.18.18.18z" fill="#F99E6E"/><circle cx="63.5" cy="25.5" r="25.5" fill="#DBF1F9"/><circle cx="121.5" cy="25.5" r="25.5" fill="#DBF1F9"/><circle cx="179.5" cy="25.5" r="25.5" fill="#DBF1F9"/><circle cx="239.5" cy="25.5" r="25.5" fill="#DBF1F9"/><circle cx="151" cy="95" r="6" fill="#DBF1F9"/><circle cx="131" cy="95" r="6" fill="#F99E6E"/><circle cx="171" cy="95" r="6" fill="#DBF1F9"/><path d="M13.01 31.82l-3.19 3.19-9.83-9.83.18-.18-.18-.18 9.83-9.83 3.19 3.19L6.2 25l6.81 6.82z" fill="#F99E6E"/></symbol><symbol viewBox="0 0 256 152" id="icon_component-button"><path d="M252 148V4H4v144h248m4 4H0V0h256v152z" fill="#DBF1F9"/><path d="M24 129V24h208v105H24zm198-95H34v85h188V34z" fill="#DBF1F9"/><path d="M148.01 76.55l-7.39 7.38-.06-.05-19.18 19.13-7.39-7.38 19.17-19.13-19.17-19.13 7.39-7.38 19.18 19.13.06-.05 7.39 7.38-.05.05.05.05z" fill="#F99F6F"/></symbol><symbol viewBox="0 0 256 152" id="icon_component-category-links"><path d="M252 148V4H4v144h248m4 4H0V0h256v152z" fill="#DBF1F9"/><path fill="#DBF1F9" d="M14 85h228v5H14z"/><path fill="#F99F6F" d="M14 95h45v7H14zM64 95h45v7H64zM114 95h45v7h-45zM197 95h45v7h-45z"/><path d="M162.06 70.47c.05 1.11.45 1.98 1.22 2.62.77.63 1.82.95 3.14.95 1.21 0 2.32-.12 3.33-.35 1.01-.23 2.11-.62 3.3-1.17v4.94c-1.08.55-2.19.93-3.34 1.15-1.15.21-2.52.31-4.12.31-3.31 0-5.89-.88-7.72-2.64-1.84-1.77-2.75-4.28-2.75-7.54 0-3.36.85-5.94 2.55-7.74 1.7-1.8 4.12-2.7 7.27-2.7 3 0 5.32.78 6.96 2.35 1.63 1.56 2.45 3.82 2.45 6.76v3.06h-12.29zm5.23-6.63c-.52-.57-1.22-.86-2.1-.86-.81 0-1.49.25-2.03.76-.55.51-.87 1.31-.96 2.4h5.91c-.03-.96-.3-1.73-.82-2.3zm-22.86 3.87c0-1.33-.19-2.33-.57-3-.38-.67-.99-1.01-1.84-1.01-1.16 0-2 .46-2.51 1.39-.52.92-.78 2.51-.78 4.76v8.72h-6.87V58.65h5.19l.86 2.47h.4a5.4 5.4 0 0 1 2.44-2.11c1.03-.47 2.23-.71 3.57-.71 2.21 0 3.92.64 5.15 1.92 1.22 1.28 1.83 3.07 1.83 5.4v12.95h-6.87V67.71zm-20.78-10.99c-2.42 0-3.64-1.01-3.64-3.02 0-1.03.29-1.8.87-2.31.57-.5 1.49-.75 2.77-.75s2.21.26 2.8.77c.58.52.88 1.28.88 2.29 0 2.01-1.23 3.02-3.68 3.02zm-15.13-5.5h6.87v27.35h-6.87V51.22zM97.11 76.06h-.26c-1.19 1.91-2.95 2.86-5.3 2.86-1.41 0-2.65-.4-3.71-1.21-1.06-.81-1.88-2-2.46-3.57-.58-1.57-.87-3.4-.87-5.5 0-3.24.65-5.77 1.95-7.6 1.3-1.82 3.08-2.74 5.36-2.74 1.11 0 2.09.23 2.93.67.83.45 1.6 1.2 2.29 2.25h.14c-.22-1.56-.33-3.12-.33-4.68v-5.32h6.92v27.35h-5.18l-1.48-2.51zm.32-7.35c0-1.76-.26-3.01-.76-3.75-.5-.75-1.3-1.12-2.37-1.12-.91 0-1.61.42-2.1 1.27-.5.85-.75 2.06-.75 3.63 0 1.55.25 2.73.76 3.54.5.81 1.22 1.21 2.16 1.21 1.1 0 1.88-.35 2.33-1.04.45-.69.69-1.75.73-3.2v-.54zm-22.82 7.22h-.14c-.93 1.15-1.87 1.94-2.83 2.36-.96.42-2.2.63-3.73.63-1.87 0-3.35-.56-4.43-1.69-1.08-1.12-1.61-2.7-1.61-4.74 0-2.12.73-3.7 2.21-4.74S67.7 66.13 70.5 66l3.32-.1v-.28c0-1.65-.81-2.47-2.43-2.47-1.45 0-3.3.5-5.53 1.48l-1.99-4.53c2.32-1.2 5.25-1.8 8.79-1.8 2.55 0 4.53.64 5.93 1.9 1.4 1.27 2.1 3.04 2.1 5.31v13.06h-4.76l-1.32-2.64zm-.76-6.25l-1.58.07c-2.26.08-3.39.91-3.39 2.49 0 1.22.65 1.83 1.95 1.83.83 0 1.54-.26 2.14-.79.59-.53.88-1.21.88-2.06v-1.54zm-25.86 3.41c.76.63 1.81.95 3.14.95 1.2 0 2.31-.12 3.33-.35 1.01-.23 2.11-.62 3.29-1.17v4.94c-1.08.55-2.19.93-3.34 1.15-1.15.21-2.52.31-4.11.31-3.32 0-5.89-.88-7.73-2.64-1.83-1.77-2.75-4.28-2.75-7.54 0-3.36.85-5.94 2.55-7.74 1.7-1.8 4.13-2.7 7.28-2.7 3 0 5.32.78 6.95 2.35 1.64 1.56 2.45 3.82 2.45 6.76v3.06H46.77c.04 1.11.45 1.98 1.22 2.62zm4.82-6.95c-.02-.96-.29-1.73-.81-2.3-.53-.57-1.23-.86-2.11-.86-.8 0-1.48.25-2.03.76-.54.51-.86 1.31-.95 2.4h5.9zm-24.26 1.95h-8.06v10.48h-6.98v-25.7h6.98v9.53h8.06v-9.53h6.98v25.7h-6.98V68.09zm98.51 10.48h-6.87V58.65h6.87v19.92z" fill="#DBF1F9"/></symbol><symbol viewBox="0 0 248 152" id="icon_component-headline"><path d="M224 147v5h-20v-5h20m-30 0v5h-20v-5h20m-30 0v5h-20v-5h20m-30 0v5h-20v-5h20m-30 0v5H84v-5h20m-30 0v5H54v-5h20m-30 0v5H24v-5h20M224 0v5h-20V0h20m-30 0v5h-20V0h20m-30 0v5h-20V0h20m-30 0v5h-20V0h20m-30 0v5H84V0h20M74 0v5H54V0h20M44 0v5H24V0h20M160.42 93.34c.18 4.25 1.74 7.58 4.67 10 2.93 2.42 6.92 3.62 11.98 3.62 4.6 0 8.84-.43 12.71-1.3 3.87-.88 8.07-2.36 12.59-4.47v18.86c-4.12 2.1-8.37 3.56-12.75 4.36-4.39.81-9.62 1.21-15.71 1.21-12.66 0-22.49-3.36-29.49-10.1-7.01-6.73-10.51-16.32-10.51-28.76 0-12.84 3.25-22.69 9.73-29.56 6.49-6.87 15.75-10.3 27.79-10.3 11.45 0 20.3 2.98 26.54 8.96 6.24 5.97 9.36 14.57 9.36 25.8v11.68h-46.91zm19.97-25.3c-1.99-2.19-4.67-3.29-8.02-3.29-3.09 0-5.67.97-7.75 2.92s-3.3 5-3.66 9.16h22.55c-.09-3.67-1.13-6.6-3.12-8.79zm-89.5 16.24h-30.8v40H33.44V26.16h26.65v36.38h30.8V26.16h26.65v98.12H90.89v-40zM0 21h5v20H0V21m0 30h5v20H0V51m0 30h5v20H0V81m0 30h5v20H0v-20M243 21h5v20h-5V21m0 30h5v20h-5V51m0 30h5v20h-5V81m0 30h5v20h-5v-20M0 141h11v11H0zM0 0h11v11H0zM237 0h11v11h-11zM237 141h11v11h-11zM25 130h181v5H25z" fill="#DBF1F9"/><path d="M218 138V17h5v121h-5z" fill="#F99E6E"/></symbol><symbol viewBox="0 0 302 152" id="icon_component-hero-carousel"><path d="M275 148V4H27v144h248m4 4H23V0h256v152z" fill="#DBF1F9"/><path fill="#DBF1F9" d="M36 14h229v124H36z"/><path fill="#FFF" d="M86 34h131v15H86zM101 54h101v15H101z"/><circle cx="151" cy="122" r="6" fill="#FFF"/><circle cx="131" cy="122" r="6" fill="#F99E6E"/><circle cx="171" cy="122" r="6" fill="#FFF"/><path d="M13.01 82.82l-3.19 3.19-9.83-9.83.18-.18-.18-.18 9.83-9.83 3.19 3.19L6.2 76l6.81 6.82zM302.01 76.18l-9.83 9.83-3.19-3.19L295.8 76l-6.81-6.82 3.19-3.19 9.83 9.83-.18.18.18.18z" fill="#F99E6E"/></symbol><symbol viewBox="0 0 257 152" id="icon_component-image-teaser"><path d="M121 148V4H4v144h117m4 4H0V0h125v152z" fill="#DBF1F9"/><path fill="#F99E6E" d="M15 120h95v17H15z"/><path fill="#DBF1F9" d="M15 15h95v70H15zM15 95h95v5H15zM15 105h73v5H15zM253 148V4H136v144h117m4 4H132V0h125v152z"/><path fill="#F99E6E" d="M147 120h95v17h-95z"/><path fill="#DBF1F9" d="M147 15h95v70h-95zM147 95h95v5h-95zM147 105h73v5h-73z"/></symbol><symbol viewBox="0 0 256 152" id="icon_component-paragraph"><path d="M252 148V4H4v144h248m4 4H0V0h256v152z" fill="#DBF1F9"/><path d="M217 130v5h-20v-5h20m-30 0v5h-20v-5h20m-30 0v5h-20v-5h20m-30 0v5h-20v-5h20m-30 0v5H78v-5h19M217 15v5h-20v-5h20m-30 0v5h-20v-5h20m-30 0v5h-20v-5h20m-30 0v5h-20v-5h20m-30 0v5H78v-5h19M60 36h5v20h-5V36m0 30h5v20h-5V66m0 30h5v19h-5V96M236 36h5v20h-5V36m0 30h5v20h-5V66m0 30h5v19h-5V96M60 124h11v11H60zM60 15h11v11H60zM230 15h11v11h-11zM230 124h11v11h-11zM80 34h107v5H80zM80 44h85v5H80zM80 64h85v5H80zM80 74h85v5H80zM80 84h75v5H80zM80 54h97v5H80z" fill="#DBF1F9"/><path fill="#F99E6E" d="M15 15h35v34H15zM15 60h35v34H15zM15 103h35v34H15z"/><path d="M26.13 40.4h6.67c2.01 0 3.6-.44 4.77-1.34 1.17-.89 1.75-2.12 1.75-3.67 0-1.05-.23-1.9-.71-2.56-.48-.65-1.25-1.12-2.31-1.4v-.12c.81-.2 1.45-.63 1.95-1.31.49-.68.73-1.5.73-2.46 0-1.46-.56-2.54-1.69-3.23s-2.86-1.04-5.18-1.04h-5.98V40.4zm4.63-13.62h1.3c1.45 0 2.18.48 2.18 1.44 0 .54-.18.94-.55 1.22-.36.27-.87.41-1.54.41h-1.39v-3.07zm1.53 6.45c.74 0 1.3.15 1.68.46.39.3.58.74.58 1.31 0 1.22-.72 1.83-2.16 1.83h-1.63v-3.6h1.53zM36.47 81.57h-2.63l1.83-10.33h2.62l.5-2.83h-9.37l-.5 2.83h2.62l-1.82 10.33H27.1l-.5 2.83h9.37l.5-2.83zM24.28 129.58v-.99h15.11v.99H24.28zm10.66-4.62c-.89.43-1.95.64-3.16.64-1.84 0-3.26-.47-4.28-1.41-1.02-.94-1.52-2.23-1.52-3.86v-9.2h3.01v8.74c0 1.1.23 1.9.67 2.42.44.51 1.17.77 2.2.77.98 0 1.7-.26 2.15-.78.44-.51.67-1.33.67-2.43v-8.72h3.02v9.23c0 1.06-.24 1.98-.71 2.78-.47.79-1.16 1.4-2.05 1.82z" fill="#FFF"/></symbol><symbol viewBox="0 0 302 151" id="icon_component-product-carousel"><path fill="#DBF1F9" d="M37 13h51v60H37zM125 13h51v60h-51zM213 13h51v60h-51z"/><path d="M99 124V4H26v120h73m4 4H22V0h81v128z" fill="#DBF1F9"/><path fill="#DBF1F9" d="M37 111h51v5H37zM48 101h29v5H48zM187 124V4h-73v120h73m4 4h-81V0h81v128z"/><path fill="#DBF1F9" d="M125 111h51v5h-51zM136 101h29v5h-29zM275 124V4h-73v120h73m4 4h-81V0h81v128z"/><path fill="#DBF1F9" d="M213 111h51v5h-51zM224 101h29v5h-29z"/><circle cx="151" cy="145" r="6" fill="#DBF1F9"/><circle cx="131" cy="145" r="6" fill="#F99E6E"/><circle cx="171" cy="145" r="6" fill="#DBF1F9"/><path d="M13.01 70.82l-3.19 3.19-9.83-9.83.18-.18-.18-.18 9.83-9.83 3.19 3.19L6.2 64l6.81 6.82zM302.01 64.18l-9.83 9.83-3.19-3.19L295.8 64l-6.81-6.82 3.19-3.19 9.83 9.83-.18.18.18.18z" fill="#F99E6E"/><path d="M62.67 89.91c-1.5 0-2.7-.79-3.3-2.01h4.39v-1.37h-4.84c-.02-.18-.02-.38-.02-.56 0-.22 0-.42.02-.61h4.84v-1.35h-4.37c.61-1.21 1.8-1.98 3.28-1.98 1.24 0 2.32.77 2.81 1.74l2.21-1.08c-.85-1.49-2.38-2.93-5.02-2.93-2.92 0-5.32 1.65-6.11 4.25h-.93v1.35h.68c-.02.19-.04.39-.04.61 0 .18.02.38.04.56h-.68v1.37h.91c.8 2.61 3.19 4.28 6.13 4.28 2.64 0 4.16-1.46 5.02-2.95l-2.21-1.06c-.49.99-1.57 1.74-2.81 1.74zM151.67 89.91c-1.5 0-2.7-.79-3.3-2.01h4.39v-1.37h-4.84c-.02-.18-.02-.38-.02-.56 0-.22 0-.42.02-.61h4.84v-1.35h-4.37c.61-1.21 1.8-1.98 3.28-1.98 1.24 0 2.32.77 2.81 1.74l2.21-1.08c-.85-1.49-2.38-2.93-5.02-2.93-2.92 0-5.32 1.65-6.11 4.25h-.93v1.35h.68c-.02.19-.04.39-.04.61 0 .18.02.38.04.56h-.68v1.37h.91c.8 2.61 3.19 4.28 6.13 4.28 2.64 0 4.16-1.46 5.02-2.95l-2.21-1.06c-.49.99-1.57 1.74-2.81 1.74zM239.67 89.91c-1.5 0-2.7-.79-3.3-2.01h4.39v-1.37h-4.84c-.02-.18-.02-.38-.02-.56 0-.22 0-.42.02-.61h4.84v-1.35h-4.37c.61-1.21 1.8-1.98 3.28-1.98 1.24 0 2.32.77 2.81 1.74l2.21-1.08c-.85-1.49-2.38-2.93-5.02-2.93-2.92 0-5.32 1.65-6.11 4.25h-.93v1.35h.68c-.02.19-.04.39-.04.61 0 .18.02.38.04.56h-.68v1.37h.91c.8 2.61 3.19 4.28 6.13 4.28 2.64 0 4.16-1.46 5.02-2.95l-2.21-1.06c-.49.99-1.57 1.74-2.81 1.74z" fill="#DBF1F9"/></symbol><symbol viewBox="0 0 256 152" id="icon_component-static-cms-block"><path d="M252 148V4H4v144h248m4 4H0V0h256v152z" fill="#DBF1F9"/><path d="M217 130v5h-20v-5h20m-30 0v5h-20v-5h20m-30 0v5h-20v-5h20m-30 0v5h-20v-5h20m-30 0v5H78v-5h19M217 15v5h-20v-5h20m-30 0v5h-20v-5h20m-30 0v5h-20v-5h20m-30 0v5h-20v-5h20m-30 0v5H78v-5h19M60 36h5v20h-5V36m0 30h5v20h-5V66m0 30h5v19h-5V96M236 36h5v20h-5V36m0 30h5v20h-5V66m0 30h5v19h-5V96M60 124h11v11H60zM60 15h11v11H60zM230 15h11v11h-11zM230 124h11v11h-11zM80 34h107v5H80zM80 44h85v5H80zM80 64h85v5H80zM80 74h85v5H80zM80 84h75v5H80zM80 54h97v5H80z" fill="#DBF1F9"/><path fill="#F99E6E" d="M15 15h35v34H15zM15 60h35v34H15zM15 103h35v34H15z"/><path d="M26.13 40.4h6.67c2.01 0 3.6-.44 4.77-1.34 1.17-.89 1.75-2.12 1.75-3.67 0-1.05-.23-1.9-.71-2.56-.48-.65-1.25-1.12-2.31-1.4v-.12c.81-.2 1.45-.63 1.95-1.31.49-.68.73-1.5.73-2.46 0-1.46-.56-2.54-1.69-3.23s-2.86-1.04-5.18-1.04h-5.98V40.4zm4.63-13.62h1.3c1.45 0 2.18.48 2.18 1.44 0 .54-.18.94-.55 1.22-.36.27-.87.41-1.54.41h-1.39v-3.07zm1.53 6.45c.74 0 1.3.15 1.68.46.39.3.58.74.58 1.31 0 1.22-.72 1.83-2.16 1.83h-1.63v-3.6h1.53zM36.47 81.57h-2.63l1.83-10.33h2.62l.5-2.83h-9.37l-.5 2.83h2.62l-1.82 10.33H27.1l-.5 2.83h9.37l.5-2.83zM24.28 129.58v-.99h15.11v.99H24.28zm10.66-4.62c-.89.43-1.95.64-3.16.64-1.84 0-3.26-.47-4.28-1.41-1.02-.94-1.52-2.23-1.52-3.86v-9.2h3.01v8.74c0 1.1.23 1.9.67 2.42.44.51 1.17.77 2.2.77.98 0 1.7-.26 2.15-.78.44-.51.67-1.33.67-2.43v-8.72h3.02v9.23c0 1.06-.24 1.98-.71 2.78-.47.79-1.16 1.4-2.05 1.82z" fill="#FFF"/></symbol><symbol viewBox="0 0 13 13" id="icon_link"><path d="M7.44 4.58c-.14-.09-.31-.12-.46-.09-.15.04-.29.13-.38.27-.09.14-.12.31-.09.46.04.15.13.29.27.38a2.03 2.03 0 0 1 .34 3.15l-2.43 2.44c-.39.38-.9.59-1.44.59-1.12 0-2.03-.91-2.03-2.03 0-.54.21-1.05.59-1.44l1.16-1.15c.12-.12.18-.29.18-.44a.56.56 0 0 0-.18-.42.615.615 0 0 0-.43-.18c-.16 0-.31.06-.43.18L.95 7.45C.34 8.07 0 8.88 0 9.75 0 11.54 1.46 13 3.25 13c.87 0 1.68-.34 2.3-.95l2.44-2.44c.61-.61.95-1.43.95-2.3 0-1.11-.56-2.13-1.5-2.73zM9.75 0c-.87 0-1.68.34-2.3.95L5.01 3.39c-.61.61-.95 1.43-.95 2.3 0 1.11.56 2.13 1.5 2.73.14.09.31.12.46.09.15-.04.29-.13.38-.27.09-.14.12-.31.09-.46a.645.645 0 0 0-.27-.38 2.03 2.03 0 0 1-.34-3.15l2.43-2.44c.39-.38.9-.59 1.44-.59 1.12 0 2.03.91 2.03 2.03 0 .54-.21 1.05-.59 1.44l-1.16 1.15a.62.62 0 0 0-.18.44c0 .16.06.31.18.42.12.12.28.18.43.18.16 0 .31-.06.43-.18l1.16-1.15c.61-.62.95-1.43.95-2.3C13 1.46 11.54 0 9.75 0z"/></symbol><symbol viewBox="0 0 17 17" id="icon_plus"><path d="M17 10h-7v7H7v-7H0V7h7V0h3v7h7v3z"/></symbol><symbol viewBox="0 0 20 20" id="icon_settings"><path d="M10.24 18l.13-.77.2-1.21 1.17-.37c.36-.11.7-.25 1.03-.42l1.09-.58 1 .72.63.45.33-.33-.45-.63-.71-1 .57-1.09c.18-.35.32-.69.42-1.02l.36-1.19 1.23-.2.76-.13v-.47l-.76-.13-1.22-.2-.36-1.18c-.11-.35-.25-.69-.42-1.01l-.58-1.1.72-1 .45-.63-.33-.33-.63.45-1.01.71-1.09-.57c-.34-.18-.69-.33-1.05-.43l-1.19-.36-.21-1.23L10.2 2h-.47l-.14.79L9.39 4l-1.17.36c-.35.11-.68.25-1.01.43l-1.1.59-1.02-.73-.61-.45-.34.34.46.64.72 1-.57 1.09c-.17.32-.31.66-.41 1.01l-.36 1.19-1.23.21-.75.13v.47l.79.13 1.21.21.36 1.17c.11.34.25.68.43 1l.59 1.1-.73 1.02-.44.61.33.33.64-.46 1-.71 1.09.57c.3.16.64.3.99.41l1.17.36.21 1.22.12.76h.48M10 6a3.999 3.999 0 1 1 .002 7.998A3.999 3.999 0 0 1 10 6m.88 14H9.12c-.61 0-1.12-.43-1.22-1.03l-.24-1.41c-.45-.14-.9-.32-1.32-.54l-1.17.84c-.21.15-.46.23-.72.23-.33 0-.64-.13-.87-.37l-1.24-1.24a1.22 1.22 0 0 1-.14-1.59l.83-1.15c-.24-.43-.43-.89-.58-1.36l-1.42-.24c-.6-.1-1.03-.61-1.03-1.22V9.16c0-.6.43-1.12 1.03-1.22l1.39-.23c.14-.47.33-.93.55-1.37l-.83-1.17c-.35-.5-.29-1.17.13-1.59l1.25-1.25c.23-.23.55-.36.87-.36.26 0 .52.08.72.23l1.15.82c.44-.23.89-.42 1.36-.57l.24-1.42C7.96.43 8.48 0 9.08 0h1.76c.61 0 1.12.43 1.22 1.03l.24 1.39c.48.15.96.34 1.41.58l1.16-.83c.21-.15.46-.23.71-.23.33 0 .64.13.88.37l1.24 1.24c.43.43.49 1.1.14 1.59l-.83 1.16c.23.43.42.89.56 1.36l1.41.24c.59.1 1.03.62 1.02 1.22v1.76c0 .6-.43 1.12-1.03 1.22l-1.41.23c-.14.47-.33.93-.56 1.37l.83 1.16c.35.49.29 1.16-.14 1.59l-1.24 1.24c-.24.24-.54.37-.87.37-.26 0-.51-.08-.72-.23L13.7 17c-.43.23-.89.42-1.36.56l-.24 1.41c-.1.6-.61 1.03-1.22 1.03zM10 8c-1.1 0-2 .9-2 2s.9 2 2 2 2-.9 2-2-.9-2-2-2z"/></symbol><symbol viewBox="0 0 16 20" id="icon_trash-can"><path d="M15 5v13c0 1.3-.74 2-2 2H3c-1.26 0-2-.7-2-2V5H0c0-1.3.74-2 2-2h2V2c0-.8.56-2 2-2h4c1.4 0 2 1.41 2 2v1h2c1.26 0 2 .7 2 2h-1zm-5-3H6v1h4V2zm3 3H3v13h10V5zM5.99 16.98H4V5.99h1.99v10.99zm2.99 0H6.99V5.99h1.99v10.99zm3.03 0h-2V5.99h2v10.99z"/></symbol><symbol viewBox="0 0 70 98" id="ml_1-2"><path d="M66 94V4H4v90h62m4 4H0V0h70v98z"/><path d="M8 8h54v39H8zm0 43h25v19H8zm29 0h25v19H37z" fill="currentColor"/></symbol><symbol viewBox="0 0 70 98" id="ml_2-2"><path d="M66 94V4H4v90h62m4 4H0V0h70v98z"/><path d="M8 31h25v19H8zm29 0h25v19H37zM8 8h25v19H8zm29 0h25v19H37z" fill="currentColor"/></symbol><symbol viewBox="0 0 70 98" id="ml_col"><path d="M66 94V4H4v90h62m4 4H0V0h70v98z"/><path d="M8 8h54v39H8zm0 43h54v39H8z" fill="currentColor"/></symbol><symbol viewBox="0 0 70 98" id="ml_slider"><path d="M66 94V4H4v90h62m4 4H0V0h70v98z"/><path d="M8 8h54v39H8z" fill="currentColor"/><circle cx="22.5" cy="58.5" r="4.5" fill="currentColor"/><path d="M35.5 61c1.4 0 2.5-1 2.5-2.5 0-1.4-1-2.5-2.5-2.5-1.4 0-2.5 1-2.5 2.5 0 1.4 1 2.5 2.5 2.5m0 2C33 63 31 61 31 58.5s2-4.5 4.5-4.5 4.5 2 4.5 4.5-2 4.5-4.5 4.5zm13-2c1.4 0 2.5-1 2.5-2.5 0-1.4-1-2.5-2.5-2.5-1.4 0-2.5 1-2.5 2.5 0 1.4 1 2.5 2.5 2.5m0 2C46 63 44 61 44 58.5s2-4.5 4.5-4.5 4.5 2 4.5 4.5-2 4.5-4.5 4.5z" fill="currentColor"/></symbol><symbol viewBox="0 0 169 98" id="tl_over"><path d="M165 94V4H4v90h161m4 4H0V0h169v98z"/><path d="M55 59h59v5H55zm6 10h47v5H61zm-6 10h59v5H55z" fill="currentColor"/></symbol><symbol viewBox="0 0 169 97" id="tl_under"><path d="M165 73V4H4v69h161m4 4H0V0h169v77z"/><path fill="currentColor" d="M45 82h79v5H45zm6 10h67v5H51z"/></symbol><symbol viewBox="0 0 169 98" id="tw_content-width"><path d="M165 94V4H4v90h161m4 4H0V0h169v98z"/><path fill="currentColor" d="M25 24h119v50H25z"/><path d="M25 79h37v15H25zm42 0h35v15H67zm40 0h37v15h-37zM25 4h57v15H25zm62 0h57v15H87z"/></symbol><symbol viewBox="0 0 169 98" id="tw_window-slider"><path d="M165 94V4H4v90h161m4 4H0V0h169v98z"/><path fill="currentColor" d="M25 24h119v50H25zM4 24h19v50H4zm142 0h19v50h-19z"/><path d="M25 4h57v15H25zm62 0h57v15H87z"/><path fill="#FFF" d="M43 50h-9.63l3.34 3.35c.4.38.4 1 0 1.36-.36.4-.97.4-1.35 0l-4.88-4.87c-.06-.03-.13-.06-.18-.12-.2-.18-.3-.43-.3-.68v-.06c0-.25.1-.5.3-.7.04-.05.1-.08.17-.12l4.88-4.87c.38-.4 1-.4 1.36 0 .4.36.4.97 0 1.35L33.38 48H43c.55 0 1 .45 1 1s-.45 1-1 1zm96-1v.02c0 .25-.1.5-.3.7-.04.05-.1.08-.17.1l-4.88 4.9c-.38.37-1 .37-1.36 0-.4-.38-.4-1 0-1.37l3.33-3.35H126c-.55 0-1-.45-1-1s.45-1 1-1h9.63l-3.34-3.35c-.4-.38-.4-1 0-1.36.36-.4.97-.4 1.35 0l4.88 4.86c.06.04.13.07.18.13.2.18.3.43.3.68V49z"/><circle cx="71.5" cy="84.5" r="4.5"/><path d="M84.5 87a2.5 2.5 0 0 0 0-5 2.5 2.5 0 0 0 0 5m0 2C82 89 80 87 80 84.5s2-4.5 4.5-4.5 4.5 2 4.5 4.5-2 4.5-4.5 4.5zm13-2a2.5 2.5 0 0 0 0-5 2.5 2.5 0 0 0 0 5m0 2C95 89 93 87 93 84.5s2-4.5 4.5-4.5 4.5 2 4.5 4.5-2 4.5-4.5 4.5z"/></symbol><symbol viewBox="0 0 169 98" id="tw_window-width"><path d="M165 94V4H4v90h161m4 4H0V0h169v98z"/><path fill="currentColor" d="M4 24h161v50H4z"/><path d="M25 79h37v15H25zm42 0h35v15H67zm40 0h37v15h-37zM25 4h57v15H25zm62 0h57v15H87z"/></symbol></svg>