<?xml version="1.0" encoding="utf-8"?>
<svg xmlns="http://www.w3.org/2000/svg"
	xmlns:xlink="http://www.w3.org/1999/xlink"
	width="20px" height="15px" viewBox="0 0 20 15">
<path fillRule="evenodd" d="M 9.05 14.28C 8.14 15.19 6.67 15.19 5.76 14.28 5.76 14.28 0.67 9.18 0.67 9.18-0.24 8.28-0.24 6.8 0.67 5.89 1.58 4.98 3.05 4.98 3.96 5.89 3.96 5.89 6.99 8.93 6.99 8.93 7.22 9.16 7.59 9.16 7.82 8.93 7.82 8.93 16.03 0.7 16.03 0.7 16.94-0.21 18.41-0.21 19.32 0.7 19.76 1.14 20 1.73 20 2.35 20 2.97 19.76 3.56 19.32 3.99 19.32 3.99 9.05 14.28 9.05 14.28Z"/></svg>