<?xml version="1.0" encoding="utf-8"?>
<svg xmlns="http://www.w3.org/2000/svg"
	xmlns:xlink="http://www.w3.org/1999/xlink"
	width="26px" height="26px" viewBox="0 0 26 26">
<path fillRule="evenodd" d="M 26.01 24.32C 26.01 24.32 24.32 26.01 24.32 26.01 24.32 26.01 17.01 18.7 17.01 18.7 12.89 21.98 6.87 21.72 3.06 17.9-1.04 13.8-1.04 7.16 3.06 3.06 7.16-1.04 13.8-1.04 17.9 3.06 21.72 6.87 21.98 12.89 18.7 17.01 18.7 17.01 26.01 24.32 26.01 24.32ZM 16.48 4.47C 13.17 1.16 7.79 1.16 4.47 4.47 1.16 7.79 1.16 13.17 4.47 16.48 7.79 19.8 13.17 19.8 16.48 16.48 19.8 13.17 19.8 7.79 16.48 4.47Z"/></svg>