<?xml version="1.0" encoding="utf-8"?>
<svg xmlns="http://www.w3.org/2000/svg"
	xmlns:xlink="http://www.w3.org/1999/xlink"
	width="28px" height="26px" viewBox="0 0 28 26">
<path fillRule="evenodd" d="M 13.61 19.9C 13.61 19.9 22.07 26 22.07 26 22.07 26 18.87 16.05 18.87 16.05 18.87 16.05 27.33 10.17 27.33 10.17 27.33 10.17 17.04 10.17 17.04 10.17 17.04 10.17 13.61 0 13.61 0 13.61 0 10.18 10.17 10.18 10.17 10.18 10.17-0.11 10.17-0.11 10.17-0.11 10.17 8.35 16.05 8.35 16.05 8.35 16.05 5.15 26 5.15 26 5.15 26 13.61 19.9 13.61 19.9Z"/></svg>