<?xml version="1.0" encoding="utf-8"?>
<svg xmlns="http://www.w3.org/2000/svg"
	xmlns:xlink="http://www.w3.org/1999/xlink"
	width="40px" height="36px" viewBox="0 0 40 36">
<path fillRule="evenodd" d="M 39.24 24.53C 39.24 24.53 21.56 30.38 21.56 30.38 21.56 30.44 21.57 30.52 21.57 30.58 21.68 33.22 19.63 35.44 17.01 35.54 16.94 35.54 16.88 35.54 16.81 35.54 14.25 35.54 12.16 33.54 12.05 30.97 12 29.71 12.44 28.49 13.31 27.55 13.6 27.24 13.92 26.98 14.26 26.75 14.26 26.75 7.4 6.03 7.4 6.03 7.4 6.03 0.67 2.66 0.67 2.66 0.12 2.38-0.1 1.72 0.18 1.17 0.45 0.62 1.11 0.4 1.66 0.67 1.66 0.67 8.79 4.26 8.79 4.26 9.06 4.39 9.26 4.62 9.35 4.9 9.35 4.9 16.37 26.02 16.37 26.02 16.45 26.01 16.54 26.01 16.62 26.01 16.69 26.01 16.75 26.01 16.82 26.01 18.53 26.01 20.03 26.9 20.87 28.26 20.87 28.26 38.54 22.4 38.54 22.4 39.12 22.22 39.76 22.53 39.95 23.11 40.13 23.69 39.82 24.33 39.24 24.53ZM 16.82 28.24C 16.79 28.24 16.75 28.24 16.71 28.24 16.03 28.27 15.41 28.55 14.94 29.06 14.48 29.55 14.25 30.2 14.27 30.88 14.33 32.28 15.5 33.37 16.92 33.31 18.32 33.26 19.41 32.07 19.36 30.68 19.3 29.31 18.19 28.24 16.82 28.24ZM 37.31 20C 37.31 20 20.24 25.65 20.24 25.65 20.13 25.69 20.01 25.71 19.9 25.71 19.44 25.71 19 25.41 18.84 24.94 18.84 24.94 13.23 8.03 13.23 8.03 13.05 7.45 13.36 6.82 13.94 6.63 13.94 6.63 22.48 3.8 22.48 3.8 22.48 3.8 31.01 0.96 31.01 0.96 31.29 0.87 31.6 0.9 31.86 1.03 32.12 1.16 32.33 1.39 32.42 1.67 32.42 1.67 38.02 18.59 38.02 18.59 38.11 18.87 38.09 19.17 37.95 19.44 37.82 19.7 37.59 19.9 37.31 20ZM 30.66 3.42C 30.66 3.42 24.23 5.55 24.23 5.55 24.23 5.55 25.59 9.65 25.59 9.65 25.78 10.24 25.46 10.87 24.88 11.06 24.76 11.1 24.65 11.12 24.53 11.12 24.07 11.12 23.64 10.82 23.48 10.35 23.48 10.35 22.12 6.25 22.12 6.25 22.12 6.25 15.69 8.39 15.69 8.39 15.69 8.39 20.6 23.19 20.6 23.19 20.6 23.19 35.57 18.24 35.57 18.24 35.57 18.24 30.66 3.42 30.66 3.42Z" fill="rgb(99,145,213)" opacity="0.67"/></svg>