<?xml version="1.0" encoding="utf-8"?>
<svg xmlns="http://www.w3.org/2000/svg"
	xmlns:xlink="http://www.w3.org/1999/xlink"
	width="45px" height="27px" viewBox="0 0 45 27">
<path fillRule="evenodd" d="M 43.79 24.13C 43.79 24.13 41.67 24.13 41.67 24.13 41.29 25.61 39.94 26.72 38.34 26.72 36.74 26.72 35.38 25.61 35.01 24.13 35.01 24.13 33.51 24.13 33.51 24.13 33.51 24.13 23.33 24.13 23.33 24.13 22.95 25.61 21.59 26.72 19.99 26.72 18.4 26.72 17.04 25.61 16.66 24.13 16.66 24.13 13.75 24.13 13.75 24.13 13.14 24.13 12.64 23.63 12.64 23.02 12.64 23.02 12.64 5.53 12.64 5.53 12.64 5.5 12.65 5.47 12.65 5.43 12.65 5.42 12.66 5.4 12.66 5.38 12.66 5.36 12.67 5.35 12.67 5.33 12.67 5.31 12.67 5.29 12.68 5.27 12.68 5.26 12.68 5.24 12.69 5.23 12.7 5.21 12.7 5.19 12.71 5.17 12.72 5.16 12.72 5.14 12.73 5.12 12.73 5.11 12.73 5.1 12.74 5.08 12.75 5.07 12.76 5.05 12.77 5.03 12.78 5.01 12.79 5 12.8 4.99 12.81 4.98 12.82 4.96 12.83 4.94 12.84 4.92 12.85 4.91 12.86 4.89 12.87 4.88 12.88 4.87 12.89 4.86 12.91 4.83 12.93 4.81 12.96 4.78 12.97 4.77 12.97 4.77 12.97 4.77 12.97 4.77 17.13 0.61 17.13 0.61 17.35 0.4 17.62 0.28 17.92 0.28 17.92 0.28 29.35 0.28 29.35 0.28 29.65 0.28 29.92 0.39 30.13 0.61 30.13 0.61 34.3 4.81 34.3 4.81 34.31 4.82 34.31 4.82 34.31 4.82 34.33 4.84 34.36 4.87 34.38 4.89 34.39 4.9 34.4 4.92 34.41 4.93 34.42 4.95 34.43 4.96 34.44 4.98 34.45 4.99 34.46 5 34.47 5.02 34.48 5.04 34.49 5.05 34.5 5.07 34.51 5.08 34.52 5.1 34.53 5.11 34.53 5.13 34.53 5.14 34.54 5.16 34.55 5.17 34.55 5.19 34.56 5.21 34.57 5.23 34.57 5.24 34.58 5.26 34.58 5.27 34.59 5.29 34.59 5.31 34.59 5.33 34.6 5.35 34.6 5.36 34.6 5.38 34.61 5.4 34.61 5.42 34.61 5.43 34.62 5.45 34.62 5.47 34.63 5.49 34.63 5.53 34.63 5.57 34.63 5.57 34.63 7.69 34.63 7.69 34.63 7.69 38.66 7.69 38.66 7.69 40.41 7.69 41.99 8.35 43.11 9.55 44.29 10.82 44.9 12.65 44.9 14.8 44.9 14.8 44.9 23.02 44.9 23.02 44.9 23.63 44.4 24.13 43.79 24.13ZM 20 24.53C 20.68 24.53 21.23 23.98 21.23 23.3 21.23 22.63 20.68 22.08 20 22.08 19.33 22.08 18.78 22.63 18.78 23.3 18.78 23.98 19.33 24.53 20 24.53ZM 22.39 2.5C 22.39 2.5 18.38 2.5 18.38 2.5 18.38 2.5 16.42 4.45 16.42 4.45 16.42 4.45 22.39 4.45 22.39 4.45 22.39 4.45 22.39 2.5 22.39 2.5ZM 28.89 2.51C 28.89 2.51 24.61 2.51 24.61 2.51 24.61 2.51 24.61 4.46 24.61 4.46 24.61 4.46 30.85 4.46 30.85 4.46 30.85 4.46 28.89 2.51 28.89 2.51ZM 32.41 8.79C 32.41 8.79 32.41 6.67 32.41 6.67 32.41 6.67 14.86 6.67 14.86 6.67 14.86 6.67 14.86 21.94 14.86 21.94 14.86 21.94 16.69 21.94 16.69 21.94 16.75 21.94 16.79 21.94 16.84 21.95 17.37 20.72 18.58 19.87 20 19.87 21.42 19.87 22.63 20.72 23.16 21.94 23.18 21.94 23.19 21.94 23.21 21.94 23.21 21.94 32.41 21.94 32.41 21.94 32.41 21.94 32.41 8.79 32.41 8.79ZM 38.34 24.53C 39.03 24.53 39.57 23.98 39.57 23.3 39.57 22.63 39.02 22.08 38.34 22.08 37.67 22.08 37.12 22.63 37.12 23.3 37.12 23.98 37.67 24.53 38.34 24.53ZM 42.7 14.83C 42.7 11.74 41.2 9.9 38.67 9.9 38.67 9.9 34.64 9.9 34.64 9.9 34.64 9.9 34.64 21.94 34.64 21.94 34.64 21.94 35.2 21.94 35.2 21.94 35.72 20.72 36.94 19.87 38.35 19.87 39.77 19.87 40.98 20.72 41.51 21.94 41.51 21.94 42.69 21.94 42.69 21.94 42.69 21.94 42.7 21.94 42.7 21.94 42.7 21.94 42.7 14.83 42.7 14.83ZM 10.64 19.72C 10.64 19.72 4.58 19.72 4.58 19.72 3.97 19.72 3.47 19.22 3.47 18.61 3.47 18 3.97 17.51 4.58 17.51 4.58 17.51 10.64 17.51 10.64 17.51 11.25 17.51 11.75 18 11.75 18.61 11.75 19.22 11.25 19.72 10.64 19.72ZM 10.64 15.41C 10.64 15.41 1.21 15.41 1.21 15.41 0.6 15.41 0.1 14.92 0.1 14.31 0.1 13.7 0.6 13.2 1.21 13.2 1.21 13.2 10.64 13.2 10.64 13.2 11.25 13.2 11.75 13.7 11.75 14.31 11.75 14.92 11.25 15.41 10.64 15.41ZM 10.64 11.11C 10.64 11.11 4.58 11.11 4.58 11.11 3.97 11.11 3.47 10.61 3.47 10 3.47 9.39 3.97 8.89 4.58 8.89 4.58 8.89 10.64 8.89 10.64 8.89 11.25 8.89 11.75 9.39 11.75 10 11.75 10.61 11.25 11.11 10.64 11.11Z" fill="rgb(99,145,213)" opacity="0.67"/></svg>