<?xml version="1.0" encoding="utf-8"?>
<svg xmlns="http://www.w3.org/2000/svg"
	xmlns:xlink="http://www.w3.org/1999/xlink"
	width="32px" height="32px" viewBox="0 0 32 32">
<defs>
<symbol id="symbol0"><path fillRule="evenodd" d="M 24.2 7.02C 24.76 6.43 25.11 5.61 25.11 4.72 25.11 2.84 23.61 1.35 21.8 1.35 20.42 1.35 17.26 3.41 15.99 5.25 14.68 3.41 11.52 1.41 10.2 1.41 8.39 1.41 6.89 2.9 6.89 4.78 6.89 5.64 7.22 6.43 7.74 7.02 7.74 7.02 1.35 7.02 1.35 7.02 1.35 7.02 1.35 15.06 1.35 15.06 1.35 15.06 3.1 15.06 3.1 15.06 3.1 15.06 3.1 30.65 3.1 30.65 3.1 30.65 12.26 30.65 12.26 30.65 12.26 30.65 19.74 30.65 19.74 30.65 19.74 30.65 28.91 30.65 28.91 30.65 28.91 30.65 28.91 15.07 28.91 15.07 28.91 15.07 30.65 15.07 30.65 15.07 30.65 15.07 30.65 7.02 30.65 7.02 30.65 7.02 24.2 7.02 24.2 7.02ZM 21.8 2.6C 22.92 2.6 23.86 3.53 23.86 4.78 23.86 5.83 23.12 6.74 22.17 6.93 22.17 6.93 17.11 6.93 17.11 6.93 16.79 6.83 16.69 6.72 16.69 6.65 16.69 5.59 20.42 2.6 21.8 2.6ZM 10.2 2.6C 11.51 2.6 15.31 5.59 15.31 6.65 15.31 6.75 15.09 6.86 14.93 6.93 14.93 6.93 9.83 6.93 9.83 6.93 8.88 6.74 8.15 5.83 8.15 4.78 8.14 3.59 9.08 2.6 10.2 2.6ZM 12.26 29.4C 12.26 29.4 4.34 29.4 4.34 29.4 4.34 29.4 4.34 15.07 4.34 15.07 4.34 15.07 12.26 15.07 12.26 15.07 12.26 15.07 12.26 29.4 12.26 29.4ZM 12.26 13.88C 12.26 13.88 2.6 13.88 2.6 13.88 2.6 13.88 2.6 8.27 2.6 8.27 2.6 8.27 12.26 8.27 12.26 8.27 12.26 8.27 12.26 13.88 12.26 13.88 12.26 13.88 12.26 13.88 12.26 13.88ZM 18.49 29.4C 18.49 29.4 13.51 29.4 13.51 29.4 13.51 29.4 13.51 8.27 13.51 8.27 13.51 8.27 18.49 8.27 18.49 8.27 18.49 8.27 18.49 29.4 18.49 29.4ZM 27.66 29.4C 27.66 29.4 19.74 29.4 19.74 29.4 19.74 29.4 19.74 15.07 19.74 15.07 19.74 15.07 27.66 15.07 27.66 15.07 27.66 15.07 27.66 29.4 27.66 29.4ZM 29.4 13.88C 29.4 13.88 19.74 13.88 19.74 13.88 19.74 13.88 19.74 8.27 19.74 8.27 19.74 8.27 29.41 8.27 29.41 8.27 29.41 8.27 29.41 13.88 29.41 13.88 29.41 13.88 29.4 13.88 29.4 13.88Z"/></symbol></defs>
<g opacity="0.67"><use xlink:href="#symbol0" x="0" y="0" width="32" height="32" fill="rgb(98,145,212)"/><use xlink:href="#symbol0" x="0" y="0" width="32" height="32" fill="none" stroke="rgb(85,127,189)" stroke-width="1.00px"/></g></svg>