<svg xmlns="http://www.w3.org/2000/svg" viewBox="0 0 20 20"><path d="M10.24 18l.13-.77.2-1.21 1.17-.37c.36-.11.7-.25 1.03-.42l1.09-.58 1 .72.63.45.33-.33-.45-.63-.71-1 .57-1.09c.18-.35.32-.69.42-1.02l.36-1.19 1.23-.2.76-.13v-.47l-.76-.13-1.22-.2-.36-1.18c-.11-.35-.25-.69-.42-1.01l-.58-1.1.72-1 .45-.63-.33-.33-.63.45-1.01.71-1.09-.57c-.34-.18-.69-.33-1.05-.43l-1.19-.36-.21-1.23L10.2 2h-.47l-.14.79L9.39 4l-1.17.36c-.35.11-.68.25-1.01.43l-1.1.59-1.02-.73-.61-.45-.34.34.46.64.72 1-.57 1.09c-.17.32-.31.66-.41 1.01l-.36 1.19-1.23.21-.75.13v.47l.79.13 1.21.21.36 1.17c.11.34.25.68.43 1l.59 1.1-.73 1.02-.44.61.33.33.64-.46 1-.71 1.09.57c.3.16.64.3.99.41l1.17.36.21 1.22.12.76h.48M10 6c2.21 0 4 1.79 4 4 0 2.2-1.79 4-4 4-2.2 0-4-1.8-4-4 0-2.21 1.8-4 4-4m.88 14H9.12c-.61 0-1.12-.43-1.22-1.03l-.24-1.41c-.45-.14-.9-.32-1.32-.54l-1.17.84c-.21.15-.46.23-.72.23-.33 0-.64-.13-.87-.37l-1.24-1.24c-.44-.43-.49-1.1-.14-1.59l.83-1.15c-.24-.43-.43-.89-.58-1.36l-1.42-.24c-.6-.1-1.03-.61-1.03-1.22V9.16c0-.6.43-1.12 1.03-1.22l1.39-.23c.14-.47.33-.93.55-1.37l-.83-1.17c-.35-.5-.29-1.17.13-1.59l1.25-1.25c.23-.23.55-.36.87-.36.26 0 .52.08.72.23l1.15.82c.44-.23.89-.42 1.36-.57l.24-1.42C7.96.43 8.48 0 9.08 0h1.76c.61 0 1.12.43 1.22 1.03l.24 1.39c.48.15.96.34 1.41.58l1.16-.83c.21-.15.46-.23.71-.23.33 0 .64.13.88.37l1.24 1.24c.43.43.49 1.1.14 1.59l-.83 1.16c.23.43.42.89.56 1.36l1.41.24c.59.1 1.03.62 1.02 1.22v1.76c0 .6-.43 1.12-1.03 1.22l-1.41.23c-.14.47-.33.93-.56 1.37l.83 1.16c.35.49.29 1.16-.14 1.59l-1.24 1.24c-.24.24-.54.37-.87.37-.26 0-.51-.08-.72-.23L13.7 17c-.43.23-.89.42-1.36.56l-.24 1.41c-.1.6-.61 1.03-1.22 1.03zM10 8c-1.1 0-2 .9-2 2s.9 2 2 2 2-.9 2-2-.9-2-2-2z"/></svg>