<?xml version="1.0" encoding="utf-8"?><svg xmlns="http://www.w3.org/2000/svg" xmlns:xlink="http://www.w3.org/1999/xlink"><symbol viewBox="0 0 169 98" id="dl_1"><path d="M165 94V4H4v90h161m4 4H0V0h169v98z"/><path d="M25 25h119v48H25z" fill="currentColor"/></symbol><symbol viewBox="0 0 169 98" id="dl_2"><path d="M165 94V4H4v90h161m4 4H0V0h169v98z"/><path d="M87 25h57v48H87zm-62 0h57v48H25z" fill="currentColor"/></symbol><symbol viewBox="0 0 169 98" id="dl_3"><path d="M165 94V4H4v90h161m4 4H0V0h169v98z"/><path d="M25 33h37v32H25zm42 0h36v32H67zm41 0h37v32h-37z" fill="currentColor"/></symbol><symbol viewBox="0 0 169 98" id="dl_4"><path d="M165 94V4H4v90h161m4 4H0V0h169v98z"/><path d="M25 35h26v28H25zm31 0h26v28H56zm31 0h26v28H87zm31 0h26v28h-26z" fill="currentColor"/></symbol><symbol viewBox="0 0 169 98" id="dl_6"><path d="M165 94V4H4v90h161m4 4H0V0h169v98z"/><path d="M24 41h15v16H24zm21 0h15v16H45zm21 0h15v16H66zm21 0h15v16H87zm21 0h15v16h-15zm21 0h15v16h-15z" fill="currentColor"/></symbol><symbol viewBox="0 0 16 20" id="icon_trash-can"><path d="M15 5v13c0 1.3-.74 2-2 2H3c-1.26 0-2-.7-2-2V5H0c0-1.3.74-2 2-2h2V2c0-.8.56-2 2-2h4c1.4 0 2 1.41 2 2v1h2c1.26 0 2 .7 2 2h-1zm-5-3H6v1h4V2zm3 3H3v13h10V5zM5.99 16.98H4V5.99h1.99v10.99zm2.99 0H6.99V5.99h1.99v10.99zm3.03 0h-2V5.99h2v10.99z"/></symbol><symbol viewBox="0 0 70 98" id="ml_1-2"><path d="M66 94V4H4v90h62m4 4H0V0h70v98z"/><path d="M8 8h54v39H8zm0 43h25v19H8zm29 0h25v19H37z" fill="currentColor"/></symbol><symbol viewBox="0 0 70 98" id="ml_2-2"><path d="M66 94V4H4v90h62m4 4H0V0h70v98z"/><path d="M8 31h25v19H8zm29 0h25v19H37zM8 8h25v19H8zm29 0h25v19H37z" fill="currentColor"/></symbol><symbol viewBox="0 0 70 98" id="ml_col"><path d="M66 94V4H4v90h62m4 4H0V0h70v98z"/><path d="M8 8h54v39H8zm0 43h54v39H8z" fill="currentColor"/></symbol><symbol viewBox="0 0 70 98" id="ml_slider"><path d="M66 94V4H4v90h62m4 4H0V0h70v98z"/><path d="M8 8h54v39H8z" fill="currentColor"/><circle cx="22.5" cy="58.5" r="4.5" fill="currentColor"/><path d="M35.5 61c1.4 0 2.5-1 2.5-2.5 0-1.4-1-2.5-2.5-2.5-1.4 0-2.5 1-2.5 2.5 0 1.4 1 2.5 2.5 2.5m0 2C33 63 31 61 31 58.5s2-4.5 4.5-4.5 4.5 2 4.5 4.5-2 4.5-4.5 4.5zm13-2c1.4 0 2.5-1 2.5-2.5 0-1.4-1-2.5-2.5-2.5-1.4 0-2.5 1-2.5 2.5 0 1.4 1 2.5 2.5 2.5m0 2C46 63 44 61 44 58.5s2-4.5 4.5-4.5 4.5 2 4.5 4.5-2 4.5-4.5 4.5z" fill="currentColor"/></symbol><symbol viewBox="0 0 169 98" id="tl_over"><path d="M165 94V4H4v90h161m4 4H0V0h169v98z"/><path d="M55 59h59v5H55zm6 10h47v5H61zm-6 10h59v5H55z" fill="currentColor"/></symbol><symbol viewBox="0 0 169 97" id="tl_under"><path d="M165 73V4H4v69h161m4 4H0V0h169v77zM45 82h79v5H45zm6 10h67v5H51z"/></symbol><symbol viewBox="0 0 169 98" id="tw_content-width"><path d="M165 94V4H4v90h161m4 4H0V0h169v98z"/><path fill="currentColor" d="M25 24h119v50H25z"/><path d="M25 79h37v15H25zm42 0h35v15H67zm40 0h37v15h-37zM25 4h57v15H25zm62 0h57v15H87z"/></symbol><symbol viewBox="0 0 169 98" id="tw_window-slider"><path d="M165 94V4H4v90h161m4 4H0V0h169v98z"/><path fill="currentColor" d="M25 24h119v50H25zM4 24h19v50H4zm142 0h19v50h-19z"/><path d="M25 4h57v15H25zm62 0h57v15H87z"/><path fill="#FFF" d="M43 50h-9.63l3.34 3.35c.4.38.4 1 0 1.36-.36.4-.97.4-1.35 0l-4.88-4.87c-.06-.03-.13-.06-.18-.12-.2-.18-.3-.43-.3-.68v-.06c0-.25.1-.5.3-.7.04-.05.1-.08.17-.12l4.88-4.87c.38-.4 1-.4 1.36 0 .4.36.4.97 0 1.35L33.38 48H43c.55 0 1 .45 1 1s-.45 1-1 1zm96-1v.02c0 .25-.1.5-.3.7-.04.05-.1.08-.17.1l-4.88 4.9c-.38.37-1 .37-1.36 0-.4-.38-.4-1 0-1.37l3.33-3.35H126c-.55 0-1-.45-1-1s.45-1 1-1h9.63l-3.34-3.35c-.4-.38-.4-1 0-1.36.36-.4.97-.4 1.35 0l4.88 4.86c.06.04.13.07.18.13.2.18.3.43.3.68V49z"/><circle cx="71.5" cy="84.5" r="4.5"/><path d="M84.5 87a2.5 2.5 0 0 0 0-5 2.5 2.5 0 0 0 0 5m0 2C82 89 80 87 80 84.5s2-4.5 4.5-4.5 4.5 2 4.5 4.5-2 4.5-4.5 4.5zm13-2a2.5 2.5 0 0 0 0-5 2.5 2.5 0 0 0 0 5m0 2C95 89 93 87 93 84.5s2-4.5 4.5-4.5 4.5 2 4.5 4.5-2 4.5-4.5 4.5z"/></symbol><symbol viewBox="0 0 169 98" id="tw_window-width"><path d="M165 94V4H4v90h161m4 4H0V0h169v98z"/><path fill="currentColor" d="M4 24h161v50H4z"/><path d="M25 79h37v15H25zm42 0h35v15H67zm40 0h37v15h-37zM25 4h57v15H25zm62 0h57v15H87z"/></symbol></svg>