<?xml version="1.0" encoding="utf-8"?><svg xmlns="http://www.w3.org/2000/svg" xmlns:xlink="http://www.w3.org/1999/xlink"><symbol viewBox="0 0 40 36" id="icon1"><path d="M39.24 24.53l-17.68 5.85c0 .06.01.14.01.2.11 2.64-1.94 4.86-4.56 4.96h-.2c-2.56 0-4.65-2-4.76-4.57a4.73 4.73 0 0 1 1.26-3.42c.29-.31.61-.57.95-.8L7.4 6.03.67 2.66C.12 2.38-.1 1.72.18 1.17.45.62 1.11.4 1.66.67l7.13 3.59c.27.13.47.36.56.64l7.02 21.12c.08-.01.17-.01.25-.01h.2c1.71 0 3.21.89 4.05 2.25l17.67-5.86c.58-.18 1.22.13 1.41.71.18.58-.13 1.22-.71 1.42zm-22.42 3.71h-.11c-.68.03-1.3.31-1.77.82a2.534 2.534 0 0 0 1.98 4.25c1.4-.05 2.49-1.24 2.44-2.63a2.537 2.537 0 0 0-2.54-2.44zM37.31 20l-17.07 5.65c-.11.04-.23.06-.34.06-.46 0-.9-.3-1.06-.77L13.23 8.03c-.18-.58.13-1.21.71-1.4l8.54-2.83L31.01.96c.28-.09.59-.06.85.07s.47.36.56.64l5.6 16.92c.09.28.07.58-.07.85-.13.26-.36.46-.64.56zM30.66 3.42l-6.43 2.13 1.36 4.1a1.12 1.12 0 0 1-1.06 1.47c-.46 0-.89-.3-1.05-.77l-1.36-4.1-6.43 2.14 4.91 14.8 14.97-4.95-4.91-14.82z" fill="#6391D5" opacity=".67"/></symbol><symbol viewBox="0 0 32 32" id="icon2"><defs><symbol id="aba"><path d="M24.2 7.02c.56-.59.91-1.41.91-2.3 0-1.88-1.5-3.37-3.31-3.37-1.38 0-4.54 2.06-5.81 3.9-1.31-1.84-4.47-3.84-5.79-3.84-1.81 0-3.31 1.49-3.31 3.37 0 .86.33 1.65.85 2.24H1.35v8.04H3.1v15.59H28.91V15.07h1.74V7.02H24.2zM21.8 2.6c1.12 0 2.06.93 2.06 2.18 0 1.05-.74 1.96-1.69 2.15h-5.06c-.32-.1-.42-.21-.42-.28 0-1.06 3.73-4.05 5.11-4.05zm-11.6 0c1.31 0 5.11 2.99 5.11 4.05 0 .1-.22.21-.38.28h-5.1c-.95-.19-1.68-1.1-1.68-2.15-.01-1.19.93-2.18 2.05-2.18zm2.06 26.8H4.34V15.07h7.92V29.4zm0-15.52H2.6V8.27h9.66v5.61zm6.23 15.52h-4.98V8.27h4.98V29.4zm9.17 0h-7.92V15.07h7.92V29.4zm1.74-15.52h-9.66V8.27h9.67v5.61h-.01z"/></symbol></defs><g opacity=".67"><use xlink:href="#aba" width="32" height="32" fill="#6291D4"/><use xlink:href="#aba" width="32" height="32" fill="none" stroke="#557FBD"/></g></symbol><symbol viewBox="0 0 45 27" id="icon3"><path d="M43.79 24.13h-2.12a3.453 3.453 0 0 1-3.33 2.59c-1.6 0-2.96-1.11-3.33-2.59h-1.5-10.18a3.465 3.465 0 0 1-3.34 2.59c-1.59 0-2.95-1.11-3.33-2.59h-2.91c-.61 0-1.11-.5-1.11-1.11V5.53c0-.03.01-.06.01-.1 0-.01.01-.03.01-.05 0-.02.01-.03.01-.05 0-.02 0-.04.01-.06 0-.01 0-.03.01-.04.01-.02.01-.04.02-.06.01-.01.01-.03.02-.05 0-.01 0-.02.01-.04.01-.01.02-.03.03-.05.01-.02.02-.03.03-.04.01-.01.02-.03.03-.05.01-.02.02-.03.03-.05l.03-.03a.5.5 0 0 1 .07-.08l.01-.01L17.13.61c.22-.21.49-.33.79-.33h11.43c.3 0 .57.11.78.33l4.17 4.2.01.01.07.07c.01.01.02.03.03.04.01.02.02.03.03.05.01.01.02.02.03.04.01.02.02.03.03.05.01.01.02.03.03.04 0 .02 0 .03.01.05.01.01.01.03.02.05.01.02.01.03.02.05 0 .01.01.03.01.05 0 .02.01.04.01.05 0 .02.01.04.01.06 0 .01.01.03.01.05.01.02.01.06.01.1v2.12h4.03c1.75 0 3.33.66 4.45 1.86 1.18 1.27 1.79 3.1 1.79 5.25v8.22c0 .61-.5 1.11-1.11 1.11zm-23.79.4c.68 0 1.23-.55 1.23-1.23A1.225 1.225 0 1 0 20 24.53zM22.39 2.5h-4.01l-1.96 1.95h5.97V2.5zm6.5.01h-4.28v1.95h6.24l-1.96-1.95zm3.52 6.28V6.67H14.86v15.27h1.83c.06 0 .1 0 .15.01A3.43 3.43 0 0 1 20 19.87c1.42 0 2.63.85 3.16 2.07h9.25V8.79zm5.93 15.74c.69 0 1.23-.55 1.23-1.23a1.225 1.225 0 1 0-1.23 1.23zm4.36-9.7c0-3.09-1.5-4.93-4.03-4.93h-4.03v12.04h.56a3.422 3.422 0 0 1 3.15-2.07c1.42 0 2.63.85 3.16 2.07h1.19v-7.11zm-32.06 4.89H4.58c-.61 0-1.11-.5-1.11-1.11 0-.61.5-1.1 1.11-1.1h6.06c.61 0 1.11.49 1.11 1.1 0 .61-.5 1.11-1.11 1.11zm0-4.31H1.21c-.61 0-1.11-.49-1.11-1.1 0-.61.5-1.11 1.11-1.11h9.43c.61 0 1.11.5 1.11 1.11 0 .61-.5 1.1-1.11 1.1zm0-4.3H4.58c-.61 0-1.11-.5-1.11-1.11 0-.61.5-1.11 1.11-1.11h6.06c.61 0 1.11.5 1.11 1.11 0 .61-.5 1.11-1.11 1.11z" fill="#6391D5" opacity=".67"/></symbol></svg>