<svg xmlns="http://www.w3.org/2000/svg" viewBox="0 0 13 13"><path d="M7.44 4.58c-.14-.09-.31-.12-.46-.09-.15.04-.29.13-.38.27-.09.14-.12.31-.09.46.04.15.13.29.27.38.59.38.94 1.02.94 1.71 0 .55-.21 1.06-.6 1.44l-2.43 2.44c-.39.38-.9.59-1.44.59-1.12 0-2.03-.91-2.03-2.03 0-.54.21-1.05.59-1.44l1.16-1.15c.12-.12.18-.29.18-.44 0-.16-.06-.31-.18-.42-.12-.12-.28-.18-.43-.18-.16 0-.31.06-.43.18L.95 7.45C.34 8.07 0 8.88 0 9.75 0 11.54 1.46 13 3.25 13c.87 0 1.68-.34 2.3-.95l2.44-2.44c.61-.61.95-1.43.95-2.3 0-1.11-.56-2.13-1.5-2.73zM9.75 0c-.87 0-1.68.34-2.3.95L5.01 3.39c-.61.61-.95 1.43-.95 2.3 0 1.11.56 2.13 1.5 2.73.14.09.31.12.46.09.15-.04.29-.13.38-.27.09-.14.12-.31.09-.46-.04-.15-.13-.29-.27-.38-.59-.38-.94-1.02-.94-1.71 0-.55.21-1.06.6-1.44l2.43-2.44c.39-.38.9-.59 1.44-.59 1.12 0 2.03.91 2.03 2.03 0 .54-.21 1.05-.59 1.44l-1.16 1.15c-.12.12-.18.28-.18.44 0 .16.06.31.18.42.12.12.28.18.43.18.16 0 .31-.06.43-.18l1.16-1.15c.61-.62.95-1.43.95-2.3C13 1.46 11.54 0 9.75 0z"/></svg>