<svg xmlns="http://www.w3.org/2000/svg" viewBox="0 0 51 45"><path d="M46.88 4.18C44.2 1.5 40.68.03 36.9.03c-3.77 0-7.32 1.48-10 4.16l-1.38 1.4-1.42-1.43C21.43 1.5 17.87 0 14.1 0c-3.76 0-7.3 1.48-9.97 4.15C1.46 6.83 0 10.38 0 14.17c0 3.8 1.48 7.34 4.15 10.02l20.3 20.37c.3.28.67.43 1.03.43.37 0 .75-.14 1.03-.42l20.36-20.35C49.53 21.55 51 18 51 14.2c0-3.78-1.45-7.34-4.12-10.02zM44.8 22.16l-19.32 19.3L6.2 22.14C4.1 20 2.93 17.18 2.93 14.17c0-3 1.16-5.83 3.28-7.94 2.1-2.12 4.92-3.3 7.9-3.3 3 0 5.82 1.18 7.93 3.3l2.45 2.46c.57.57 1.5.57 2.06 0l2.43-2.44c2.1-2.13 4.94-3.3 7.92-3.3 2.97 0 5.78 1.17 7.9 3.3 2.12 2.12 3.28 4.94 3.28 7.94s-1.16 5.83-3.28 7.96z"/></svg>