<?xml version="1.0" encoding="utf-8"?><svg xmlns="http://www.w3.org/2000/svg" xmlns:xlink="http://www.w3.org/1999/xlink"><symbol viewBox="0 0 12 14" id="icon_arrow-down" xmlns="http://www.w3.org/2000/svg"><path d="M11.71 8.65l-4.88 4.88c-.03.06-.06.13-.12.18-.19.19-.44.29-.69.29H6c-.01 0-.01-.01-.02-.01-.25.01-.5-.09-.69-.28-.06-.05-.09-.12-.13-.18L.29 8.65a.954.954 0 0 1 0-1.36c.37-.38.98-.38 1.36 0L5 10.63V1c0-.55.45-1 1-1s1 .45 1 1v9.63l3.35-3.34c.38-.38.99-.38 1.36 0 .38.37.38.98 0 1.36z"/></symbol><symbol viewBox="0 0 12 14" id="icon_arrow-up" xmlns="http://www.w3.org/2000/svg"><path d="M11.71 6.71c-.37.38-.98.38-1.36 0L7 3.37V13c0 .55-.45 1-1 1s-1-.45-1-1V3.37L1.65 6.71c-.38.38-.99.38-1.36 0a.954.954 0 0 1 0-1.36L5.17.47c.03-.06.06-.13.12-.18.19-.19.44-.29.69-.29H6c.01 0 .01.01.02.01.25-.01.5.09.69.28.06.05.09.12.13.18l4.87 4.88c.38.38.38.99 0 1.36z"/></symbol><symbol viewBox="0 0 17 17" id="icon_plus" xmlns="http://www.w3.org/2000/svg"><path d="M17 10h-7v7H7v-7H0V7h7V0h3v7h7v3z"/></symbol><symbol viewBox="0 0 16 20" id="icon_trash-can" xmlns="http://www.w3.org/2000/svg"><path d="M15 5v13c0 1.3-.74 2-2 2H3c-1.26 0-2-.7-2-2V5H0c0-1.3.74-2 2-2h2V2c0-.8.56-2 2-2h4c1.4 0 2 1.41 2 2v1h2c1.26 0 2 .7 2 2h-1zm-5-3H6v1h4V2zm3 3H3v13h10V5zM5.99 16.98H4V5.99h1.99v10.99zm2.99 0H6.99V5.99h1.99v10.99zm3.03 0h-2V5.99h2v10.99z"/></symbol></svg>